<svg xmlns="http://www.w3.org/2000/svg" width="1920" height="1080"><path d="M293,1289L-42,1311L598,1315Z" fill="#9373b6" stroke="#9373b6" stroke-width="1.51"/><path d="M598,1315L-42,1311L825,1323Z" fill="#8b6cb1" stroke="#8b6cb1" stroke-width="1.51"/><path d="M714,-231L1240,-204L1316,-216Z" fill="#c5c2de" stroke="#c5c2de" stroke-width="1.51"/><path d="M1028,1294L825,1323L1554,1297Z" fill="#6b4ea0" stroke="#6b4ea0" stroke-width="1.51"/><path d="M1185,1268L1028,1294L1554,1297Z" fill="#664a9e" stroke="#664a9e" stroke-width="1.51"/><path d="M1316,-216L1491,-164L1863,-190Z" fill="#b2a3d0" stroke="#b2a3d0" stroke-width="1.51"/><path d="M1840,1263L1554,1297L2128,1287Z" fill="#50228b" stroke="#50228b" stroke-width="1.51"/><path d="M1863,-190L1994,-122L2151,-135Z" fill="#a486c1" stroke="#a486c1" stroke-width="1.51"/><path d="M2103,810L2043,1056L2211,989Z" fill="#593393" stroke="#593393" stroke-width="1.51"/><path d="M1932,619L2103,810L2216,557Z" fill="#6d51a2" stroke="#6d51a2" stroke-width="1.51"/><path d="M2103,810L2211,989L2216,557Z" fill="#61439b" stroke="#61439b" stroke-width="1.51"/><path d="M2211,989L2043,1056L2217,1166Z" fill="#51248c" stroke="#51248c" stroke-width="1.51"/><path d="M2121,260L2023,310L2221,484Z" fill="#8467af" stroke="#8467af" stroke-width="1.51"/><path d="M1960,452L2216,557L2221,484Z" fill="#785ba7" stroke="#785ba7" stroke-width="1.51"/><path d="M2023,310L1960,452L2221,484Z" fill="#8165ae" stroke="#8165ae" stroke-width="1.51"/><path d="M2151,-135L2162,2L2221,484Z" fill="#9374b6" stroke="#9374b6" stroke-width="1.51"/><path d="M2162,2L2171,173L2221,484Z" fill="#8c6db2" stroke="#8c6db2" stroke-width="1.51"/><path d="M2171,173L2121,260L2221,484Z" fill="#8668b0" stroke="#8668b0" stroke-width="1.51"/><path d="M2211,989L2217,1166L2221,484Z" fill="#5a3694" stroke="#5a3694" stroke-width="1.51"/><path d="M2216,557L2211,989L2221,484Z" fill="#684a9e" stroke="#684a9e" stroke-width="1.51"/><path d="M2012,1233L1840,1263L2128,1287Z" fill="#4c1987" stroke="#4c1987" stroke-width="1.51"/><path d="M2012,1233L2128,1287L2217,1166Z" fill="#491685" stroke="#491685" stroke-width="1.51"/><path d="M2043,1056L2012,1233L2217,1166Z" fill="#4e1d89" stroke="#4e1d89" stroke-width="1.51"/><path d="M1960,452L1932,619L2216,557Z" fill="#785ca8" stroke="#785ca8" stroke-width="1.51"/><path d="M1974,999L2043,1056L2103,810Z" fill="#5b3695" stroke="#5b3695" stroke-width="1.51"/><path d="M1971,842L1974,999L2103,810Z" fill="#603e99" stroke="#603e99" stroke-width="1.51"/><path d="M2151,-135L1994,-122L2162,2Z" fill="#9f80bd" stroke="#9f80bd" stroke-width="1.51"/><path d="M1994,-122L1975,-29L2162,2Z" fill="#a081be" stroke="#a081be" stroke-width="1.51"/><path d="M2162,2L1988,126L2171,173Z" fill="#9678b8" stroke="#9678b8" stroke-width="1.51"/><path d="M1988,126L2121,260L2171,173Z" fill="#9174b6" stroke="#9174b6" stroke-width="1.51"/><path d="M1975,-29L1988,126L2162,2Z" fill="#9b7ebc" stroke="#9b7ebc" stroke-width="1.51"/><path d="M1428,1268L1185,1268L1554,1297Z" fill="#61429a" stroke="#61429a" stroke-width="1.51"/><path d="M1932,619L1971,842L2103,810Z" fill="#684da1" stroke="#684da1" stroke-width="1.51"/><path d="M1988,126L2023,310L2121,260Z" fill="#8f73b6" stroke="#8f73b6" stroke-width="1.51"/><path d="M-22,-239L245,-200L714,-231Z" fill="#eae9f3" stroke="#eae9f3" stroke-width="1.51"/><path d="M1932,619L1906,829L1971,842Z" fill="#6a50a3" stroke="#6a50a3" stroke-width="1.51"/><path d="M1988,126L1798,187L2023,310Z" fill="#9479ba" stroke="#9479ba" stroke-width="1.51"/><path d="M1825,1074L2012,1233L2043,1056Z" fill="#54278f" stroke="#54278f" stroke-width="1.51"/><path d="M1974,999L1825,1074L2043,1056Z" fill="#593093" stroke="#593093" stroke-width="1.51"/><path d="M1975,-29L1875,-14L1988,126Z" fill="#9e82c0" stroke="#9e82c0" stroke-width="1.51"/><path d="M1825,1074L1840,1263L2012,1233Z" fill="#53258d" stroke="#53258d" stroke-width="1.51"/><path d="M1833,347L1960,452L2023,310Z" fill="#886eb4" stroke="#886eb4" stroke-width="1.51"/><path d="M1798,187L1833,347L2023,310Z" fill="#9077b9" stroke="#9077b9" stroke-width="1.51"/><path d="M1971,842L1906,829L1974,999Z" fill="#62419b" stroke="#62419b" stroke-width="1.51"/><path d="M1906,829L1812,922L1974,999Z" fill="#62419b" stroke="#62419b" stroke-width="1.51"/><path d="M1875,-14L1975,-29L1994,-122Z" fill="#a286c1" stroke="#a286c1" stroke-width="1.51"/><path d="M1863,-190L1875,-14L1994,-122Z" fill="#a689c4" stroke="#a689c4" stroke-width="1.51"/><path d="M1875,-14L1798,187L1988,126Z" fill="#9c83bf" stroke="#9c83bf" stroke-width="1.51"/><path d="M1491,-164L1626,-120L1863,-190Z" fill="#ae9bcc" stroke="#ae9bcc" stroke-width="1.51"/><path d="M1803,619L1906,829L1932,619Z" fill="#7159a7" stroke="#7159a7" stroke-width="1.51"/><path d="M1803,619L1932,619L1960,452Z" fill="#7a61ab" stroke="#7a61ab" stroke-width="1.51"/><path d="M1812,922L1825,1074L1974,999Z" fill="#5e3a98" stroke="#5e3a98" stroke-width="1.51"/><path d="M1785,398L1803,619L1960,452Z" fill="#8169b0" stroke="#8169b0" stroke-width="1.51"/><path d="M1833,347L1785,398L1960,452Z" fill="#8770b5" stroke="#8770b5" stroke-width="1.51"/><path d="M1803,619L1688,816L1906,829Z" fill="#6e59a8" stroke="#6e59a8" stroke-width="1.51"/><path d="M1825,1074L1734,1216L1840,1263Z" fill="#562c91" stroke="#562c91" stroke-width="1.51"/><path d="M1703,130L1798,187L1875,-14Z" fill="#9f88c2" stroke="#9f88c2" stroke-width="1.51"/><path d="M1863,-190L1719,-34L1875,-14Z" fill="#a78ec5" stroke="#a78ec5" stroke-width="1.51"/><path d="M1688,816L1812,922L1906,829Z" fill="#684ea1" stroke="#684ea1" stroke-width="1.51"/><path d="M1785,398L1684,520L1803,619Z" fill="#826db2" stroke="#826db2" stroke-width="1.51"/><path d="M1798,187L1728,296L1833,347Z" fill="#937ebc" stroke="#937ebc" stroke-width="1.51"/><path d="M1734,1216L1554,1297L1840,1263Z" fill="#562d90" stroke="#562d90" stroke-width="1.51"/><path d="M1719,-34L1703,130L1875,-14Z" fill="#a48ec5" stroke="#a48ec5" stroke-width="1.51"/><path d="M1626,-120L1719,-34L1863,-190Z" fill="#ab95c9" stroke="#ab95c9" stroke-width="1.51"/><path d="M1672,633L1688,816L1803,619Z" fill="#7663ac" stroke="#7663ac" stroke-width="1.51"/><path d="M1812,922L1669,1075L1825,1074Z" fill="#603e99" stroke="#603e99" stroke-width="1.51"/><path d="M1643,929L1669,1075L1812,922Z" fill="#65479e" stroke="#65479e" stroke-width="1.51"/><path d="M1669,1075L1734,1216L1825,1074Z" fill="#5c3596" stroke="#5c3596" stroke-width="1.51"/><path d="M1728,296L1785,398L1833,347Z" fill="#8e7aba" stroke="#8e7aba" stroke-width="1.51"/><path d="M1684,520L1672,633L1803,619Z" fill="#7d6ab0" stroke="#7d6ab0" stroke-width="1.51"/><path d="M1688,816L1643,929L1812,922Z" fill="#6950a2" stroke="#6950a2" stroke-width="1.51"/><path d="M1703,130L1728,296L1798,187Z" fill="#9a86c0" stroke="#9a86c0" stroke-width="1.51"/><path d="M1728,296L1684,520L1785,398Z" fill="#8b78b9" stroke="#8b78b9" stroke-width="1.51"/><path d="M1517,322L1525,510L1684,520Z" fill="#8c7ebb" stroke="#8c7ebb" stroke-width="1.51"/><path d="M1457,-29L1703,130L1719,-34Z" fill="#a897c9" stroke="#a897c9" stroke-width="1.51"/><path d="M1517,322L1684,520L1728,296Z" fill="#8f80bc" stroke="#8f80bc" stroke-width="1.51"/><path d="M1703,130L1509,179L1728,296Z" fill="#9d8cc3" stroke="#9d8cc3" stroke-width="1.51"/><path d="M1509,179L1517,322L1728,296Z" fill="#9a8cc3" stroke="#9a8cc3" stroke-width="1.51"/><path d="M1669,1075L1554,1297L1734,1216Z" fill="#5b3595" stroke="#5b3595" stroke-width="1.51"/><path d="M1672,633L1493,797L1688,816Z" fill="#7465ad" stroke="#7465ad" stroke-width="1.51"/><path d="M1457,-29L1509,179L1703,130Z" fill="#a798ca" stroke="#a798ca" stroke-width="1.51"/><path d="M1626,-120L1457,-29L1719,-34Z" fill="#ad9ccc" stroke="#ad9ccc" stroke-width="1.51"/><path d="M1524,1053L1554,1297L1669,1075Z" fill="#603e9a" stroke="#603e9a" stroke-width="1.51"/><path d="M1643,929L1524,1053L1669,1075Z" fill="#66489e" stroke="#66489e" stroke-width="1.51"/><path d="M1525,510L1672,633L1684,520Z" fill="#8372b4" stroke="#8372b4" stroke-width="1.51"/><path d="M1493,797L1643,929L1688,816Z" fill="#6f5aa8" stroke="#6f5aa8" stroke-width="1.51"/><path d="M1525,510L1473,582L1672,633Z" fill="#8376b6" stroke="#8376b6" stroke-width="1.51"/><path d="M1473,582L1493,797L1672,633Z" fill="#7d6fb3" stroke="#7d6fb3" stroke-width="1.51"/><path d="M1491,939L1524,1053L1643,929Z" fill="#6a51a3" stroke="#6a51a3" stroke-width="1.51"/><path d="M1493,797L1491,939L1643,929Z" fill="#6f5aa8" stroke="#6f5aa8" stroke-width="1.51"/><path d="M1524,1053L1428,1268L1554,1297Z" fill="#603f99" stroke="#603f99" stroke-width="1.51"/><path d="M1491,-164L1457,-29L1626,-120Z" fill="#b1a3cf" stroke="#b1a3cf" stroke-width="1.51"/><path d="M1473,582L1380,744L1493,797Z" fill="#7d74b5" stroke="#7d74b5" stroke-width="1.51"/><path d="M1457,-29L1377,-7L1509,179Z" fill="#ada3cf" stroke="#ada3cf" stroke-width="1.51"/><path d="M1509,179L1409,296L1517,322Z" fill="#9d94c7" stroke="#9d94c7" stroke-width="1.51"/><path d="M1364,1032L1428,1268L1524,1053Z" fill="#674aa0" stroke="#674aa0" stroke-width="1.51"/><path d="M1517,322L1390,486L1525,510Z" fill="#9086bf" stroke="#9086bf" stroke-width="1.51"/><path d="M245,-200L573,-201L714,-231Z" fill="#e0e0ee" stroke="#e0e0ee" stroke-width="1.51"/><path d="M1377,-7L1303,177L1509,179Z" fill="#aaa3cf" stroke="#aaa3cf" stroke-width="1.51"/><path d="M1409,296L1390,486L1517,322Z" fill="#978fc4" stroke="#978fc4" stroke-width="1.51"/><path d="M1491,939L1364,1032L1524,1053Z" fill="#6c54a4" stroke="#6c54a4" stroke-width="1.51"/><path d="M1390,486L1473,582L1525,510Z" fill="#8a80bb" stroke="#8a80bb" stroke-width="1.51"/><path d="M1320,919L1491,939L1493,797Z" fill="#7362ac" stroke="#7362ac" stroke-width="1.51"/><path d="M1303,177L1409,296L1509,179Z" fill="#a39ccb" stroke="#a39ccb" stroke-width="1.51"/><path d="M1329,596L1380,744L1473,582Z" fill="#847cba" stroke="#847cba" stroke-width="1.51"/><path d="M1377,-7L1457,-29L1491,-164Z" fill="#b2a8d1" stroke="#b2a8d1" stroke-width="1.51"/><path d="M1316,-216L1377,-7L1491,-164Z" fill="#b6add5" stroke="#b6add5" stroke-width="1.51"/><path d="M1380,744L1320,919L1493,797Z" fill="#786cb1" stroke="#786cb1" stroke-width="1.51"/><path d="M1320,919L1364,1032L1491,939Z" fill="#715daa" stroke="#715daa" stroke-width="1.51"/><path d="M1390,486L1329,596L1473,582Z" fill="#8a82bd" stroke="#8a82bd" stroke-width="1.51"/><path d="M1364,1032L1185,1268L1428,1268Z" fill="#684ca1" stroke="#684ca1" stroke-width="1.51"/><path d="M1197,1041L1185,1268L1364,1032Z" fill="#6e57a7" stroke="#6e57a7" stroke-width="1.51"/><path d="M1174,346L1390,486L1409,296Z" fill="#9a96c8" stroke="#9a96c8" stroke-width="1.51"/><path d="M1316,-216L1240,-204L1377,-7Z" fill="#b9b4d8" stroke="#b9b4d8" stroke-width="1.51"/><path d="M1303,177L1174,346L1409,296Z" fill="#a3a0cd" stroke="#a3a0cd" stroke-width="1.51"/><path d="M1227,167L1303,177L1377,-7Z" fill="#aeaad2" stroke="#aeaad2" stroke-width="1.51"/><path d="M1175,-34L1227,167L1377,-7Z" fill="#b3b0d6" stroke="#b3b0d6" stroke-width="1.51"/><path d="M1240,-204L1175,-34L1377,-7Z" fill="#b9b5d9" stroke="#b9b5d9" stroke-width="1.51"/><path d="M1172,761L1320,919L1380,744Z" fill="#7c75b6" stroke="#7c75b6" stroke-width="1.51"/><path d="M1329,596L1194,678L1380,744Z" fill="#8580bc" stroke="#8580bc" stroke-width="1.51"/><path d="M1191,516L1329,596L1390,486Z" fill="#8f8ac1" stroke="#8f8ac1" stroke-width="1.51"/><path d="M1174,346L1191,516L1390,486Z" fill="#9895c6" stroke="#9895c6" stroke-width="1.51"/><path d="M1194,678L1172,761L1380,744Z" fill="#837fbb" stroke="#837fbb" stroke-width="1.51"/><path d="M714,-231L916,-117L1240,-204Z" fill="#cac7e1" stroke="#cac7e1" stroke-width="1.51"/><path d="M1320,919L1197,1041L1364,1032Z" fill="#7260ab" stroke="#7260ab" stroke-width="1.51"/><path d="M1227,167L1174,346L1303,177Z" fill="#a8a6d0" stroke="#a8a6d0" stroke-width="1.51"/><path d="M1172,761L1185,934L1320,919Z" fill="#7c71b4" stroke="#7c71b4" stroke-width="1.51"/><path d="M1185,934L1197,1041L1320,919Z" fill="#7666af" stroke="#7666af" stroke-width="1.51"/><path d="M1191,516L1194,678L1329,596Z" fill="#8d89c0" stroke="#8d89c0" stroke-width="1.51"/><path d="M916,-117L1089,-112L1240,-204Z" fill="#c3c0dd" stroke="#c3c0dd" stroke-width="1.51"/><path d="M1191,516L1073,640L1194,678Z" fill="#908cc2" stroke="#908cc2" stroke-width="1.51"/><path d="M1068,1054L1185,1268L1197,1041Z" fill="#725aa9" stroke="#725aa9" stroke-width="1.51"/><path d="M1097,136L1174,346L1227,167Z" fill="#adaad2" stroke="#adaad2" stroke-width="1.51"/><path d="M1175,-34L1086,39L1227,167Z" fill="#b7b4d7" stroke="#b7b4d7" stroke-width="1.51"/><path d="M1086,39L1097,136L1227,167Z" fill="#b6b2d6" stroke="#b6b2d6" stroke-width="1.51"/><path d="M1089,-112L1175,-34L1240,-204Z" fill="#bfbbdb" stroke="#bfbbdb" stroke-width="1.51"/><path d="M1097,136L1010,338L1174,346Z" fill="#acaad1" stroke="#acaad1" stroke-width="1.51"/><path d="M1010,338L1044,513L1174,346Z" fill="#a3a1cd" stroke="#a3a1cd" stroke-width="1.51"/><path d="M1068,1054L1028,1294L1185,1268Z" fill="#7257a6" stroke="#7257a6" stroke-width="1.51"/><path d="M1172,761L991,778L1185,934Z" fill="#837bb9" stroke="#837bb9" stroke-width="1.51"/><path d="M1174,346L1044,513L1191,516Z" fill="#9c99c8" stroke="#9c99c8" stroke-width="1.51"/><path d="M1044,513L1073,640L1191,516Z" fill="#9792c5" stroke="#9792c5" stroke-width="1.51"/><path d="M1073,640L1172,761L1194,678Z" fill="#8a86be" stroke="#8a86be" stroke-width="1.51"/><path d="M1185,934L1068,1054L1197,1041Z" fill="#7866ae" stroke="#7866ae" stroke-width="1.51"/><path d="M991,778L979,982L1185,934Z" fill="#8276b6" stroke="#8276b6" stroke-width="1.51"/><path d="M979,982L1068,1054L1185,934Z" fill="#7d6bb1" stroke="#7d6bb1" stroke-width="1.51"/><path d="M1073,640L991,778L1172,761Z" fill="#8b87bf" stroke="#8b87bf" stroke-width="1.51"/><path d="M1089,-112L1086,39L1175,-34Z" fill="#bdbada" stroke="#bdbada" stroke-width="1.51"/><path d="M830,1155L1028,1294L1068,1054Z" fill="#795eaa" stroke="#795eaa" stroke-width="1.51"/><path d="M916,-117L1086,39L1089,-112Z" fill="#c3c0dd" stroke="#c3c0dd" stroke-width="1.51"/><path d="M873,246L1010,338L1097,136Z" fill="#b3b1d5" stroke="#b3b1d5" stroke-width="1.51"/><path d="M883,138L873,246L1097,136Z" fill="#bab8d9" stroke="#bab8d9" stroke-width="1.51"/><path d="M1086,39L883,138L1097,136Z" fill="#bbb8d9" stroke="#bbb8d9" stroke-width="1.51"/><path d="M898,918L979,982L991,778Z" fill="#877ab8" stroke="#877ab8" stroke-width="1.51"/><path d="M916,-117L821,43L1086,39Z" fill="#c5c1de" stroke="#c5c1de" stroke-width="1.51"/><path d="M821,43L883,138L1086,39Z" fill="#c1bedc" stroke="#c1bedc" stroke-width="1.51"/><path d="M979,982L830,1155L1068,1054Z" fill="#7f69b0" stroke="#7f69b0" stroke-width="1.51"/><path d="M1044,513L826,606L1073,640Z" fill="#9a95c6" stroke="#9a95c6" stroke-width="1.51"/><path d="M826,606L889,717L1073,640Z" fill="#9793c5" stroke="#9793c5" stroke-width="1.51"/><path d="M889,717L991,778L1073,640Z" fill="#908cc2" stroke="#908cc2" stroke-width="1.51"/><path d="M1010,338L828,489L1044,513Z" fill="#a5a2cc" stroke="#a5a2cc" stroke-width="1.51"/><path d="M828,489L826,606L1044,513Z" fill="#a19eca" stroke="#a19eca" stroke-width="1.51"/><path d="M830,1155L825,1323L1028,1294Z" fill="#795ca8" stroke="#795ca8" stroke-width="1.51"/><path d="M873,246L828,489L1010,338Z" fill="#aeadd3" stroke="#aeadd3" stroke-width="1.51"/><path d="M773,307L828,489L873,246Z" fill="#b3b2d5" stroke="#b3b2d5" stroke-width="1.51"/><path d="M898,918L830,1155L979,982Z" fill="#8370b4" stroke="#8370b4" stroke-width="1.51"/><path d="M889,717L898,918L991,778Z" fill="#8d86bf" stroke="#8d86bf" stroke-width="1.51"/><path d="M717,1065L830,1155L898,918Z" fill="#8772b5" stroke="#8772b5" stroke-width="1.51"/><path d="M692,940L717,1065L898,918Z" fill="#8c7bba" stroke="#8c7bba" stroke-width="1.51"/><path d="M889,717L784,749L898,918Z" fill="#918bc1" stroke="#918bc1" stroke-width="1.51"/><path d="M762,-57L821,43L916,-117Z" fill="#cbc9e2" stroke="#cbc9e2" stroke-width="1.51"/><path d="M714,-231L762,-57L916,-117Z" fill="#d0cee5" stroke="#d0cee5" stroke-width="1.51"/><path d="M784,749L692,940L898,918Z" fill="#9086bf" stroke="#9086bf" stroke-width="1.51"/><path d="M721,1255L825,1323L830,1155Z" fill="#7e62ac" stroke="#7e62ac" stroke-width="1.51"/><path d="M701,164L873,246L883,138Z" fill="#bfbedc" stroke="#bfbedc" stroke-width="1.51"/><path d="M826,606L784,749L889,717Z" fill="#9996c7" stroke="#9996c7" stroke-width="1.51"/><path d="M821,43L701,164L883,138Z" fill="#c5c3df" stroke="#c5c3df" stroke-width="1.51"/><path d="M701,164L773,307L873,246Z" fill="#bdbcdb" stroke="#bdbcdb" stroke-width="1.51"/><path d="M721,1255L598,1315L825,1323Z" fill="#8062ac" stroke="#8062ac" stroke-width="1.51"/><path d="M711,677L784,749L826,606Z" fill="#9c9ac9" stroke="#9c9ac9" stroke-width="1.51"/><path d="M677,512L826,606L828,489Z" fill="#a7a4cd" stroke="#a7a4cd" stroke-width="1.51"/><path d="M773,307L677,512L828,489Z" fill="#afaed3" stroke="#afaed3" stroke-width="1.51"/><path d="M717,1065L721,1255L830,1155Z" fill="#846ab1" stroke="#846ab1" stroke-width="1.51"/><path d="M677,512L711,677L826,606Z" fill="#a4a1cd" stroke="#a4a1cd" stroke-width="1.51"/><path d="M762,-57L701,164L821,43Z" fill="#cac9e1" stroke="#cac9e1" stroke-width="1.51"/><path d="M498,37L701,164L762,-57Z" fill="#cfcfe5" stroke="#cfcfe5" stroke-width="1.51"/><path d="M701,164L599,270L773,307Z" fill="#c0c0de" stroke="#c0c0de" stroke-width="1.51"/><path d="M599,270L677,512L773,307Z" fill="#b8b8d9" stroke="#b8b8d9" stroke-width="1.51"/><path d="M711,677L554,823L784,749Z" fill="#9c99c9" stroke="#9c99c9" stroke-width="1.51"/><path d="M554,823L692,940L784,749Z" fill="#9890c5" stroke="#9890c5" stroke-width="1.51"/><path d="M714,-231L573,-201L762,-57Z" fill="#d7d6e9" stroke="#d7d6e9" stroke-width="1.51"/><path d="M554,823L607,930L692,940Z" fill="#978bc3" stroke="#978bc3" stroke-width="1.51"/><path d="M717,1065L525,1128L721,1255Z" fill="#8970b5" stroke="#8970b5" stroke-width="1.51"/><path d="M573,-201L498,37L762,-57Z" fill="#d7d7e9" stroke="#d7d7e9" stroke-width="1.51"/><path d="M599,270L491,501L677,512Z" fill="#b8b8d8" stroke="#b8b8d8" stroke-width="1.51"/><path d="M498,37L575,206L701,164Z" fill="#cdcde4" stroke="#cdcde4" stroke-width="1.51"/><path d="M575,206L599,270L701,164Z" fill="#c6c6e1" stroke="#c6c6e1" stroke-width="1.51"/><path d="M677,512L560,571L711,677Z" fill="#a9a7d0" stroke="#a9a7d0" stroke-width="1.51"/><path d="M692,940L607,930L717,1065Z" fill="#9080bd" stroke="#9080bd" stroke-width="1.51"/><path d="M525,1128L598,1315L721,1255Z" fill="#876cb2" stroke="#876cb2" stroke-width="1.51"/><path d="M607,930L525,1128L717,1065Z" fill="#907cbb" stroke="#907cbb" stroke-width="1.51"/><path d="M457,-121L498,37L573,-201Z" fill="#dcdcec" stroke="#dcdcec" stroke-width="1.51"/><path d="M560,571L554,823L711,677Z" fill="#a4a2cd" stroke="#a4a2cd" stroke-width="1.51"/><path d="M434,1254L293,1289L598,1315Z" fill="#8d6fb3" stroke="#8d6fb3" stroke-width="1.51"/><path d="M491,501L560,571L677,512Z" fill="#b1afd4" stroke="#b1afd4" stroke-width="1.51"/><path d="M349,287L358,448L491,501Z" fill="#c2c1de" stroke="#c2c1de" stroke-width="1.51"/><path d="M368,649L447,841L554,823Z" fill="#a5a1cd" stroke="#a5a1cd" stroke-width="1.51"/><path d="M368,649L554,823L560,571Z" fill="#aaa7d0" stroke="#aaa7d0" stroke-width="1.51"/><path d="M245,-200L457,-121L573,-201Z" fill="#e3e2f0" stroke="#e3e2f0" stroke-width="1.51"/><path d="M525,1128L434,1254L598,1315Z" fill="#8c70b4" stroke="#8c70b4" stroke-width="1.51"/><path d="M349,287L491,501L599,270Z" fill="#c2c3df" stroke="#c2c3df" stroke-width="1.51"/><path d="M390,970L525,1128L607,930Z" fill="#9784bf" stroke="#9784bf" stroke-width="1.51"/><path d="M554,823L447,841L607,930Z" fill="#9d93c7" stroke="#9d93c7" stroke-width="1.51"/><path d="M447,841L390,970L607,930Z" fill="#9d8fc5" stroke="#9d8fc5" stroke-width="1.51"/><path d="M575,206L349,287L599,270Z" fill="#c9c9e2" stroke="#c9c9e2" stroke-width="1.51"/><path d="M498,37L391,149L575,206Z" fill="#d2d3e7" stroke="#d2d3e7" stroke-width="1.51"/><path d="M391,149L349,287L575,206Z" fill="#cfcfe5" stroke="#cfcfe5" stroke-width="1.51"/><path d="M491,501L368,649L560,571Z" fill="#b2b0d5" stroke="#b2b0d5" stroke-width="1.51"/><path d="M457,-121L378,-82L498,37Z" fill="#dedeed" stroke="#dedeed" stroke-width="1.51"/><path d="M341,1070L434,1254L525,1128Z" fill="#9379ba" stroke="#9379ba" stroke-width="1.51"/><path d="M390,970L341,1070L525,1128Z" fill="#9983bf" stroke="#9983bf" stroke-width="1.51"/><path d="M358,448L368,649L491,501Z" fill="#b8b6d8" stroke="#b8b6d8" stroke-width="1.51"/><path d="M378,-82L391,149L498,37Z" fill="#dadaeb" stroke="#dadaeb" stroke-width="1.51"/><path d="M341,1070L293,1289L434,1254Z" fill="#9578b9" stroke="#9578b9" stroke-width="1.51"/><path d="M368,649L242,787L447,841Z" fill="#aba7d1" stroke="#aba7d1" stroke-width="1.51"/><path d="M245,-200L378,-82L457,-121Z" fill="#e5e4f0" stroke="#e5e4f0" stroke-width="1.51"/><path d="M358,448L262,491L368,649Z" fill="#bcbada" stroke="#bcbada" stroke-width="1.51"/><path d="M378,-82L234,-69L391,149Z" fill="#e1e0ee" stroke="#e1e0ee" stroke-width="1.51"/><path d="M242,787L390,970L447,841Z" fill="#a59acb" stroke="#a59acb" stroke-width="1.51"/><path d="M349,287L216,362L358,448Z" fill="#c9c9e2" stroke="#c9c9e2" stroke-width="1.51"/><path d="M262,491L228,656L368,649Z" fill="#b8b6d8" stroke="#b8b6d8" stroke-width="1.51"/><path d="M228,656L242,787L368,649Z" fill="#b2aed5" stroke="#b2aed5" stroke-width="1.51"/><path d="M245,-200L234,-69L378,-82Z" fill="#e7e6f1" stroke="#e7e6f1" stroke-width="1.51"/><path d="M285,993L341,1070L390,970Z" fill="#9f8bc3" stroke="#9f8bc3" stroke-width="1.51"/><path d="M242,787L285,993L390,970Z" fill="#a596c9" stroke="#a596c9" stroke-width="1.51"/><path d="M283,197L349,287L391,149Z" fill="#d3d4e8" stroke="#d3d4e8" stroke-width="1.51"/><path d="M234,-69L283,197L391,149Z" fill="#dddced" stroke="#dddced" stroke-width="1.51"/><path d="M279,1037L293,1289L341,1070Z" fill="#9a80be" stroke="#9a80be" stroke-width="1.51"/><path d="M234,-69L101,104L283,197Z" fill="#e1e0ee" stroke="#e1e0ee" stroke-width="1.51"/><path d="M285,993L279,1037L341,1070Z" fill="#9f8ac3" stroke="#9f8ac3" stroke-width="1.51"/><path d="M216,362L262,491L358,448Z" fill="#c5c4e0" stroke="#c5c4e0" stroke-width="1.51"/><path d="M279,1037L98,1061L293,1289Z" fill="#9d82bf" stroke="#9d82bf" stroke-width="1.51"/><path d="M283,197L216,362L349,287Z" fill="#d0d0e6" stroke="#d0d0e6" stroke-width="1.51"/><path d="M98,1061L42,1193L293,1289Z" fill="#9d80bd" stroke="#9d80bd" stroke-width="1.51"/><path d="M95,254L216,362L283,197Z" fill="#d4d4e8" stroke="#d4d4e8" stroke-width="1.51"/><path d="M242,787L50,926L285,993Z" fill="#a99bcb" stroke="#a99bcb" stroke-width="1.51"/><path d="M42,1193L-42,1311L293,1289Z" fill="#9b7bbb" stroke="#9b7bbb" stroke-width="1.51"/><path d="M104,514L228,656L262,491Z" fill="#bfbcdb" stroke="#bfbcdb" stroke-width="1.51"/><path d="M98,1061L279,1037L285,993Z" fill="#a28dc4" stroke="#a28dc4" stroke-width="1.51"/><path d="M50,926L98,1061L285,993Z" fill="#a692c7" stroke="#a692c7" stroke-width="1.51"/><path d="M101,104L95,254L283,197Z" fill="#dcdbec" stroke="#dcdbec" stroke-width="1.51"/><path d="M53,797L50,926L242,787Z" fill="#afa5d0" stroke="#afa5d0" stroke-width="1.51"/><path d="M216,362L104,514L262,491Z" fill="#c6c5df" stroke="#c6c5df" stroke-width="1.51"/><path d="M56,639L53,797L228,656Z" fill="#b7b3d7" stroke="#b7b3d7" stroke-width="1.51"/><path d="M41,-22L101,104L234,-69Z" fill="#e7e6f1" stroke="#e7e6f1" stroke-width="1.51"/><path d="M228,656L53,797L242,787Z" fill="#b2aed4" stroke="#b2aed4" stroke-width="1.51"/><path d="M35,-128L234,-69L245,-200Z" fill="#eceaf4" stroke="#eceaf4" stroke-width="1.51"/><path d="M-22,-239L35,-128L245,-200Z" fill="#f0eff6" stroke="#f0eff6" stroke-width="1.51"/><path d="M104,514L56,639L228,656Z" fill="#bebada" stroke="#bebada" stroke-width="1.51"/><path d="M35,-128L41,-22L234,-69Z" fill="#eceaf4" stroke="#eceaf4" stroke-width="1.51"/><path d="M95,254L104,514L216,362Z" fill="#cecde4" stroke="#cecde4" stroke-width="1.51"/><path d="M-14,752L53,797L56,639Z" fill="#b8b3d8" stroke="#b8b3d8" stroke-width="1.51"/><path d="M-125,251L-81,497L95,254Z" fill="#d6d6e9" stroke="#d6d6e9" stroke-width="1.51"/><path d="M50,926L-20,1135L98,1061Z" fill="#a790c6" stroke="#a790c6" stroke-width="1.51"/><path d="M-20,1135L42,1193L98,1061Z" fill="#a387c2" stroke="#a387c2" stroke-width="1.51"/><path d="M-100,144L95,254L101,104Z" fill="#e1e0ee" stroke="#e1e0ee" stroke-width="1.51"/><path d="M95,254L-81,497L104,514Z" fill="#cecde4" stroke="#cecde4" stroke-width="1.51"/><path d="M-81,497L56,639L104,514Z" fill="#c5c1dd" stroke="#c5c1dd" stroke-width="1.51"/><path d="M41,-22L-100,144L101,104Z" fill="#e7e6f1" stroke="#e7e6f1" stroke-width="1.51"/><path d="M-100,144L-125,251L95,254Z" fill="#e0dfed" stroke="#e0dfed" stroke-width="1.51"/><path d="M-81,-13L-100,144L41,-22Z" fill="#ebe9f3" stroke="#ebe9f3" stroke-width="1.51"/><path d="M35,-128L-81,-13L41,-22Z" fill="#efecf5" stroke="#efecf5" stroke-width="1.51"/><path d="M-14,752L-140,949L50,926Z" fill="#b1a4d0" stroke="#b1a4d0" stroke-width="1.51"/><path d="M-140,949L-20,1135L50,926Z" fill="#ab96ca" stroke="#ab96ca" stroke-width="1.51"/><path d="M-14,752L50,926L53,797Z" fill="#b2a8d2" stroke="#b2a8d2" stroke-width="1.51"/><path d="M-73,661L-14,752L56,639Z" fill="#bcb8d9" stroke="#bcb8d9" stroke-width="1.51"/><path d="M-81,497L-73,661L56,639Z" fill="#c2bedd" stroke="#c2bedd" stroke-width="1.51"/><path d="M-20,1135L-42,1311L42,1193Z" fill="#a182be" stroke="#a182be" stroke-width="1.51"/><path d="M-22,-239L-81,-13L35,-128Z" fill="#f1f0f7" stroke="#f1f0f7" stroke-width="1.51"/><path d="M-125,251L-178,489L-81,497Z" fill="#d2d1e6" stroke="#d2d1e6" stroke-width="1.51"/><path d="M-307,-189L-239,-13L-81,-13Z" fill="#f3f2f7" stroke="#f3f2f7" stroke-width="1.51"/><path d="M-307,-189L-81,-13L-22,-239Z" fill="#f5f3f8" stroke="#f5f3f8" stroke-width="1.51"/><path d="M-140,949L-198,1071L-20,1135Z" fill="#aa93c8" stroke="#aa93c8" stroke-width="1.51"/><path d="M-208,1236L-42,1311L-20,1135Z" fill="#a283bf" stroke="#a283bf" stroke-width="1.51"/><path d="M-242,808L-140,949L-14,752Z" fill="#b5abd4" stroke="#b5abd4" stroke-width="1.51"/><path d="M-73,661L-202,670L-14,752Z" fill="#bdb9da" stroke="#bdb9da" stroke-width="1.51"/><path d="M-202,670L-242,808L-14,752Z" fill="#bbb6da" stroke="#bbb6da" stroke-width="1.51"/><path d="M-198,1071L-208,1236L-20,1135Z" fill="#a689c3" stroke="#a689c3" stroke-width="1.51"/><path d="M-275,325L-178,489L-125,251Z" fill="#d8d7ea" stroke="#d8d7ea" stroke-width="1.51"/><path d="M-81,497L-178,489L-73,661Z" fill="#c8c5df" stroke="#c8c5df" stroke-width="1.51"/><path d="M-178,489L-202,670L-73,661Z" fill="#c4c1de" stroke="#c4c1de" stroke-width="1.51"/><path d="M-219,79L-100,144L-81,-13Z" fill="#eaeaf3" stroke="#eaeaf3" stroke-width="1.51"/><path d="M-239,-13L-219,79L-81,-13Z" fill="#eeedf5" stroke="#eeedf5" stroke-width="1.51"/><path d="M-219,990L-198,1071L-140,949Z" fill="#ae99cb" stroke="#ae99cb" stroke-width="1.51"/><path d="M-219,79L-125,251L-100,144Z" fill="#e6e5f1" stroke="#e6e5f1" stroke-width="1.51"/><path d="M-242,808L-219,990L-140,949Z" fill="#b3a3d0" stroke="#b3a3d0" stroke-width="1.51"/><path d="M-219,79L-275,325L-125,251Z" fill="#e2e2ef" stroke="#e2e2ef" stroke-width="1.51"/><path d="M-275,325L-202,670L-178,489Z" fill="#cecce3" stroke="#cecce3" stroke-width="1.51"/><path d="M-275,325L-242,808L-202,670Z" fill="#c7c3df" stroke="#c7c3df" stroke-width="1.51"/><path d="M-219,990L-208,1236L-198,1071Z" fill="#aa8fc7" stroke="#aa8fc7" stroke-width="1.51"/><path d="M-219,990L-242,808L-208,1236Z" fill="#ae99cb" stroke="#ae99cb" stroke-width="1.51"/><path d="M-239,-13L-275,325L-219,79Z" fill="#eae9f3" stroke="#eae9f3" stroke-width="1.51"/><path d="M-307,-189L-275,325L-239,-13Z" fill="#efeef6" stroke="#efeef6" stroke-width="1.51"/></svg>