<?xml version="1.0" encoding="iso-8859-1"?>
<!-- Generator: Adobe Illustrator 19.0.0, SVG Export Plug-In . SVG Version: 6.00 Build 0)  -->
<svg version="1.1" id="Layer_1" xmlns="http://www.w3.org/2000/svg" xmlns:xlink="http://www.w3.org/1999/xlink" x="0px" y="0px"
	 viewBox="0 0 398.093 398.093" style="enable-background:new 0 0 398.093 398.093;" xml:space="preserve">
<polygon style="fill:#2EA2DB;" points="214.174,270.158 222.836,254.707 198.723,229.366 174.61,254.707 184.501,272.614 
	170.279,323.943 198.723,368.42 227.168,320.194 "/>
<path style="fill:#E1E6E9;" d="M343.402,307.2v-4.331c0-40.21-35.879-72.921-80.356-72.921l-64.323,94.578l-63.677-95.224l0,0
	c-44.477,0-80.356,32.776-80.356,72.921v4.331l144.032,84.04L343.402,307.2z"/>
<path style="fill:#F16051;" d="M255.612,153.277c0,0,2.457-8.016,9.891-14.869v-37.624c0,0,0-16.097-17.907-20.428
	c0,0,6.788-12.347-9.244-17.907h-65.616c0,0-37.107,1.875-40.792,38.917v37.689c0,0,8.663,4.331,10.537,19.135l-0.646-31.547
	c0,0,4.331-17.907,20.428-19.135c0,0,26.57,3.685,46.998-9.891c0,0,19.782,6.788,22.238,7.434c0,0,25.341,4.978,23.467,30.319
	L255.612,153.277z"/>
<path style="fill:#FDBF5E;" d="M231.499,104.469c-2.457-0.646-22.238-7.434-22.238-7.434c-20.428,13.576-46.998,9.891-46.998,9.891
	c-16.097,0.646-20.428,19.135-20.428,19.135l0.646,31.547c0-0.646,0-0.646,0-1.228c3.103,30.901,27.216,69.883,56.889,69.883
	c30.901,0,56.242-42.02,56.889-74.214l-0.646-17.325C256.194,109.382,231.499,104.469,231.499,104.469z"/>
<polygon style="fill:#2EA2DB;" points="214.174,270.158 222.836,254.707 198.723,229.366 174.61,254.707 184.501,272.614 
	170.279,323.943 198.723,368.42 227.168,320.194 "/>
<g>
	<rect x="308.17" y="119.273" style="fill:#193651;" width="12.347" height="12.347"/>
	<rect x="308.17" y="151.467" style="fill:#193651;" width="12.347" height="12.347"/>
	<rect x="308.17" y="183.596" style="fill:#193651;" width="12.347" height="12.347"/>
	<rect x="76.929" y="119.273" style="fill:#193651;" width="12.347" height="12.347"/>
	<rect x="76.929" y="151.467" style="fill:#193651;" width="12.347" height="12.347"/>
	<rect x="76.929" y="183.596" style="fill:#193651;" width="12.347" height="12.347"/>
	<path style="fill:#193651;" d="M198.723,398.093l-171.83-99.491V99.491L198.723,0L371.2,99.556v199.046L198.723,398.093z
		 M39.24,291.168l159.483,92.121l159.483-92.121V106.925L198.723,14.804L38.594,106.925L39.24,291.168z"/>
</g>
<g>
</g>
<g>
</g>
<g>
</g>
<g>
</g>
<g>
</g>
<g>
</g>
<g>
</g>
<g>
</g>
<g>
</g>
<g>
</g>
<g>
</g>
<g>
</g>
<g>
</g>
<g>
</g>
<g>
</g>
</svg>
