<?xml version="1.0" encoding="iso-8859-1"?>
<!-- Generator: Adobe Illustrator 19.0.0, SVG Export Plug-In . SVG Version: 6.00 Build 0)  -->
<svg version="1.1" id="Layer_1" xmlns="http://www.w3.org/2000/svg" xmlns:xlink="http://www.w3.org/1999/xlink" x="0px" y="0px"
	 viewBox="0 0 395.636 395.636" style="enable-background:new 0 0 395.636 395.636;" xml:space="preserve">
<path style="fill:#FFFFFF;" d="M6.206,364.735V117.463c0-6.788,5.56-12.347,12.347-12.347h358.529
	c6.788,0,12.347,5.56,12.347,12.347v247.273c0,6.788-5.56,12.347-12.347,12.347H18.554C11.766,377.083,6.206,371.523,6.206,364.735z
	"/>
<path style="fill:#D3D7DA;" d="M377.083,105.115H18.554c-6.788,0-12.347,5.56-12.347,12.347v36.461h383.289v-36.461
	C389.43,110.675,383.871,105.115,377.083,105.115z"/>
<path style="fill:#FFFFFF;" d="M161.358,105.115V55.014c0-19.782,16.097-36.461,36.461-36.461l0,0
	c20.428,0,36.461,16.679,36.461,36.461v50.101H161.358z"/>
<path style="fill:#193651;" d="M377.083,98.909H240.485V55.014c0-23.467-19.135-42.667-42.667-42.667s-42.667,19.135-42.667,42.667
	v43.895H18.554C8.016,98.909,0,106.925,0,117.463v247.273c0,10.537,8.016,18.554,18.554,18.554h358.529
	c10.537,0,18.554-8.016,18.554-18.554V117.463C395.636,106.925,387.62,98.909,377.083,98.909z M167.499,55.014
	c0-16.679,13.576-30.319,30.319-30.319s30.319,13.576,30.319,30.319v43.895h-61.22V55.014H167.499z M383.289,364.735
	c0,3.685-2.457,6.206-6.206,6.206H18.554c-3.685,0-6.206-2.457-6.206-6.206V117.463c0-3.685,2.457-6.206,6.206-6.206h358.529
	c3.685,0,6.206,2.457,6.206,6.206L383.289,364.735L383.289,364.735z"/>
<g>
	<polygon style="fill:#2EA2DB;" points="134.012,292.913 122.376,319.612 110.739,292.848 115.588,273.842 110.675,264.598 
		122.376,251.604 133.495,264.598 129.228,272.614 	"/>
	<circle style="fill:#2EA2DB;" cx="122.376" cy="212.04" r="30.901"/>
</g>
<path style="fill:#FDBF5E;" d="M189.802,350.513v-61.22c0-21.01-16.679-37.689-37.689-37.689l0,0l-29.673,68.008l-29.673-68.008l0,0
	c-21.01,0-37.689,16.679-37.689,37.689v61.22H189.802L189.802,350.513z"/>
<g>
	<rect x="253.479" y="191.612" style="fill:#193651;" width="96.453" height="12.347"/>
	<rect x="253.479" y="241.067" style="fill:#193651;" width="96.453" height="12.347"/>
	<rect x="253.479" y="289.939" style="fill:#193651;" width="96.453" height="12.347"/>
	<rect x="252.832" y="339.394" style="fill:#193651;" width="12.347" height="11.119"/>
	<rect x="295.499" y="339.394" style="fill:#193651;" width="12.347" height="11.119"/>
	<rect x="338.166" y="339.394" style="fill:#193651;" width="12.347" height="11.119"/>
	<path style="fill:#193651;" d="M197.818,67.362L197.818,67.362c-6.206,0-11.119-4.978-11.119-11.119l0,0
		c0-6.206,4.913-11.119,11.119-11.119l0,0c6.206,0,11.119,4.913,11.119,11.119l0,0C208.937,61.802,204.024,67.362,197.818,67.362z"
		/>
</g>
<g>
</g>
<g>
</g>
<g>
</g>
<g>
</g>
<g>
</g>
<g>
</g>
<g>
</g>
<g>
</g>
<g>
</g>
<g>
</g>
<g>
</g>
<g>
</g>
<g>
</g>
<g>
</g>
<g>
</g>
</svg>
