<?xml version="1.0" encoding="iso-8859-1"?>
<!-- Generator: Adobe Illustrator 19.0.0, SVG Export Plug-In . SVG Version: 6.00 Build 0)  -->
<svg version="1.1" id="Layer_1" xmlns="http://www.w3.org/2000/svg" xmlns:xlink="http://www.w3.org/1999/xlink" x="0px" y="0px"
	 viewBox="0 0 400.549 400.549" style="enable-background:new 0 0 400.549 400.549;" xml:space="preserve">
<path style="fill:#FFFFFF;" d="M271.386,271.386c-18.554,17.907-43.895,28.444-71.111,28.444s-52.558-11.119-71.111-28.444
	c-34.651,4.331-61.802,34.004-61.802,70.465v51.911h265.826V341.85C333.188,305.39,306.618,275.717,271.386,271.386z"/>
<path id="SVGCleanerId_0" style="fill:#193651;" d="M339.394,399.321H61.156v-58.117c0-38.335,29.026-71.111,67.362-76.024
	l3.103-0.646l1.875,1.875c18.554,17.325,42.02,27.216,66.78,27.216s48.808-9.244,66.78-27.216l1.875-1.875l3.103,0.646
	c38.335,4.913,67.362,37.689,67.362,76.024L339.394,399.321L339.394,399.321z M73.568,386.974h253.414v-45.77
	c0-31.547-22.885-58.117-53.786-63.677c-20.428,18.554-46.352,28.444-73.568,28.444s-53.139-9.891-73.568-28.444
	c-30.901,5.56-53.786,32.129-53.786,63.677v45.77H73.568z"/>
<path id="SVGCleanerId_1" style="fill:#4FBF9F;" d="M92.121,368.42v-27.216c0-19.782,12.347-37.107,30.319-43.249
	c22.238,17.325,49.455,26.57,77.899,26.57s55.661-9.244,77.899-26.57c17.907,6.206,30.319,23.467,30.319,43.249v27.216H92.121z"/>
<path id="SVGCleanerId_2" style="fill:#FFFFFF;" d="M200.275,121.794L200.275,121.794c-40.792,0-74.214,33.358-74.214,74.214l0,0
	c0,40.792,33.358,74.214,74.214,74.214l0,0c40.792,0,74.214-33.358,74.214-74.214l0,0
	C274.489,155.152,241.067,121.794,200.275,121.794z"/>
<path style="fill:#FFFFFF;" d="M391.887,196.59l-52.493-52.558v22.885h-70.917c3.814,8.921,5.947,18.747,5.947,29.091
	c0,10.537-2.198,20.558-6.271,29.673h71.176v23.467L391.887,196.59z"/>
<path style="fill:#2EA2DB;" d="M200.275,9.891l-52.558,52.558h22.885V128c9.115-4.008,19.135-6.206,29.673-6.206
	s20.558,2.198,29.673,6.206V62.448h22.885L200.275,9.891z"/>
<g>
	<path style="fill:#FFFFFF;" d="M126.125,195.943c0-10.279,2.133-20.105,5.947-29.091H61.156v-22.82L8.663,196.59l52.558,52.558
		v-23.467h71.176C128.323,216.501,126.125,206.481,126.125,195.943z"/>
	<path style="fill:#FFFFFF;" d="M271.386,271.386c-18.554,17.907-43.895,28.444-71.111,28.444s-52.558-11.119-71.111-28.444
		c-34.586,4.331-61.802,34.004-61.802,70.465v51.911h265.826V341.85C333.188,305.39,306.618,275.717,271.386,271.386z"/>
</g>
<g>
	<path id="SVGCleanerId_0_1_" style="fill:#193651;" d="M339.394,399.321H61.156v-58.117c0-38.335,29.026-71.111,67.362-76.024
		l3.103-0.646l1.875,1.875c18.554,17.325,42.02,27.216,66.78,27.216s48.808-9.244,66.78-27.216l1.875-1.875l3.103,0.646
		c38.335,4.913,67.362,37.689,67.362,76.024L339.394,399.321L339.394,399.321z M73.568,386.974h253.414v-45.77
		c0-31.547-22.885-58.117-53.786-63.677c-20.428,18.554-46.352,28.444-73.568,28.444s-53.139-9.891-73.568-28.444
		c-30.901,5.56-53.786,32.129-53.786,63.677v45.77H73.568z"/>
</g>
<g>
	<path id="SVGCleanerId_1_1_" style="fill:#4FBF9F;" d="M92.121,368.42v-27.216c0-19.782,12.347-37.107,30.319-43.249
		c22.238,17.325,49.455,26.57,77.899,26.57s55.661-9.244,77.899-26.57c17.907,6.206,30.319,23.467,30.319,43.249v27.216H92.121z"/>
</g>
<g>
	<path id="SVGCleanerId_2_1_" style="fill:#FFFFFF;" d="M200.275,121.794L200.275,121.794c-40.792,0-74.214,33.358-74.214,74.214
		l0,0c0,40.792,33.358,74.214,74.214,74.214l0,0c40.792,0,74.214-33.358,74.214-74.214l0,0
		C274.489,155.152,241.067,121.794,200.275,121.794z"/>
</g>
<g>
	<path style="fill:#193651;" d="M400.549,196.59l-67.362-68.008v32.129h-60.574c-8.016-16.097-20.428-28.444-36.461-36.461V68.59
		h32.129L200.275,1.228L132.913,68.59h32.129v55.661c-16.097,8.016-28.444,20.428-36.461,36.461H68.008v-32.129L0,196.59
		l67.362,67.362v-32.129h60.574c12.994,26.57,40.792,45.123,72.339,45.123s58.699-18.554,72.339-45.123h60.574v32.129
		L400.549,196.59z M123.022,219.41H55.014v14.222l-37.689-37.689l37.689-37.689v14.222h68.008
		C118.691,180.493,118.691,212.04,123.022,219.41z M162.586,56.242l37.689-37.689l37.689,37.689h-14.222v63.03
		c-7.434-4.331-38.917-4.331-46.352,0v-63.03C177.39,56.242,162.586,56.242,162.586,56.242z M200.275,264.598
		c-37.689,0-68.008-30.319-68.008-68.008s30.319-68.008,68.008-68.008s68.008,30.319,68.008,68.008S237.964,264.598,200.275,264.598
		z M277.527,219.41c4.331-7.434,4.913-38.917,0-46.352h68.008v-14.222l37.689,37.689l-37.689,37.689v-14.222h-68.008V219.41z"/>
	<rect x="161.939" y="340.622" style="fill:#193651;" width="12.347" height="12.347"/>
	<rect x="194.069" y="340.622" style="fill:#193651;" width="12.347" height="12.347"/>
	<rect x="226.263" y="340.622" style="fill:#193651;" width="12.347" height="12.347"/>
	<rect x="336.291" y="190.384" style="fill:#193651;" width="12.347" height="12.347"/>
	<rect x="51.911" y="190.384" style="fill:#193651;" width="12.347" height="12.347"/>
	<rect x="194.069" y="53.139" style="fill:#193651;" width="12.347" height="12.347"/>
</g>
<g>
</g>
<g>
</g>
<g>
</g>
<g>
</g>
<g>
</g>
<g>
</g>
<g>
</g>
<g>
</g>
<g>
</g>
<g>
</g>
<g>
</g>
<g>
</g>
<g>
</g>
<g>
</g>
<g>
</g>
</svg>
