<?xml version="1.0" encoding="iso-8859-1"?>
<!-- Generator: Adobe Illustrator 19.0.0, SVG Export Plug-In . SVG Version: 6.00 Build 0)  -->
<svg version="1.1" id="Layer_1" xmlns="http://www.w3.org/2000/svg" xmlns:xlink="http://www.w3.org/1999/xlink" x="0px" y="0px"
	 viewBox="0 0 395.636 395.636" style="enable-background:new 0 0 395.636 395.636;" xml:space="preserve">
<path style="fill:#FFFFFF;" d="M389.43,197.818L389.43,197.818c0,105.697-85.915,191.612-191.612,191.612l0,0
	c-105.697,0-191.612-85.915-191.612-191.612l0,0C6.206,92.121,92.121,6.206,197.818,6.206l0,0
	C303.515,6.206,389.43,92.121,389.43,197.818z"/>
<g>
	<rect x="279.402" y="185.471" style="fill:#193651;" width="12.347" height="12.347"/>
	<rect x="103.822" y="185.471" style="fill:#193651;" width="12.347" height="12.347"/>
	<path style="fill:#193651;" d="M197.818,180.493L197.818,180.493c-9.891,0-19.135-3.685-26.57-11.119
		c-6.788-6.788-11.119-16.679-11.119-26.57c0-20.428,16.679-37.107,37.107-37.107s37.107,16.679,37.107,37.107
		C234.925,163.814,218.246,180.493,197.818,180.493L197.818,180.493z M197.818,118.691c-13.576,0-24.76,11.119-24.76,24.76
		c0,6.788,2.457,12.994,7.434,17.907c4.913,4.913,11.119,7.434,17.907,7.434l0,0c13.576,0,24.76-11.119,24.76-24.76
		C223.16,130.392,211.394,118.691,197.818,118.691z"/>
	<path style="fill:#193651;" d="M236.154,199.046h-76.671c-17.325,0-30.901,13.576-30.901,30.901v32.776
		c18.554,17.325,41.438,26.57,69.236,27.216l0,0c26.57,0,49.455-9.244,69.236-27.216v-32.776
		C267.055,212.687,253.479,199.046,236.154,199.046z M140.929,257.164v-27.216c0-10.537,8.016-18.554,18.554-18.554h76.671
		c10.537,0,18.554,8.016,18.554,18.554v27.216c-16.097,12.994-34.586,19.782-56.889,20.428
		C174.933,276.299,156.38,269.511,140.929,257.164z"/>
</g>
<path style="fill:#4FBF9F;" d="M159.483,229.947v17.325c25.988,14.869,51.329,14.869,76.671,0v-17.907L159.483,229.947z"/>
<g>
	<path style="fill:#193651;" d="M191.612,308.493c-58.699-3.103-105.115-51.911-105.115-110.675
		c0-39.564,21.01-76.671,55.661-96.453l-6.206-10.537c-38.335,22.238-61.802,63.03-61.802,106.925
		c0,66.133,51.911,119.919,117.463,123.022v0.646h12.347v-18.554h-12.347V308.493z"/>
	<path style="fill:#193651;" d="M197.818,0C89.018,0,0,89.018,0,197.818s89.018,197.818,197.818,197.818
		s197.818-89.018,197.818-197.818C395.636,98.263,317.156,2.457,197.818,0z M197.818,346.182
		c-69.236,0-129.81-48.808-144.679-116.234l-12.347,2.457c15.451,71.111,78.481,123.022,150.82,126.125v24.76
		c-99.556-3.685-179.265-85.333-179.265-185.471c0-48.808,19.135-93.349,50.101-126.707l17.325,17.325
		c-26.57,29.026-42.667,67.362-42.667,109.446h12.347c0-81.584,66.78-148.364,148.364-148.364
		c39.564,0,76.671,15.451,105.115,43.248c26.57,26.57,42.02,61.22,43.248,98.909h-24.76
		c-3.685-63.03-54.368-113.713-117.463-117.463l0,0h-12.347v18.554h12.347v-5.56c58.699,3.103,105.115,51.911,105.115,110.675
		c0,39.564-21.01,76.671-55.661,96.453l6.206,10.537c36.461-21.01,59.345-59.345,61.802-100.784h24.76
		C342.497,283.152,277.592,346.182,197.818,346.182z M204.024,383.289v-24.76c85.915-3.103,154.57-74.214,154.57-160.711
		c0-42.667-16.679-83.459-46.998-113.713c-30.319-30.319-71.111-46.998-113.778-46.998c-42.02,0-80.356,16.097-109.446,42.667
		L71.111,62.448c33.358-30.901,77.899-50.101,126.707-50.101c107.572,1.228,184.824,85.915,185.471,185.471
		C383.289,297.956,303.515,379.539,204.024,383.289z"/>
</g>
<g>
</g>
<g>
</g>
<g>
</g>
<g>
</g>
<g>
</g>
<g>
</g>
<g>
</g>
<g>
</g>
<g>
</g>
<g>
</g>
<g>
</g>
<g>
</g>
<g>
</g>
<g>
</g>
<g>
</g>
</svg>
