<?xml version="1.0" encoding="iso-8859-1"?>
<!-- Generator: Adobe Illustrator 19.0.0, SVG Export Plug-In . SVG Version: 6.00 Build 0)  -->
<svg version="1.1" id="Layer_1" xmlns="http://www.w3.org/2000/svg" xmlns:xlink="http://www.w3.org/1999/xlink" x="0px" y="0px"
	 viewBox="0 0 395.636 395.636" style="enable-background:new 0 0 395.636 395.636;" xml:space="preserve">
<rect x="6.206" y="189.091" style="fill:#FFFFFF;" width="383.289" height="197.172"/>
<g>
	<rect x="91.475" y="216.889" style="fill:#2EA2DB;" width="30.901" height="28.444"/>
	<rect x="152.048" y="216.889" style="fill:#2EA2DB;" width="30.901" height="28.444"/>
	<rect x="212.687" y="216.889" style="fill:#2EA2DB;" width="30.901" height="28.444"/>
	<rect x="273.261" y="216.889" style="fill:#2EA2DB;" width="30.901" height="28.444"/>
	<rect x="334.416" y="216.889" style="fill:#2EA2DB;" width="30.901" height="28.444"/>
	<rect x="30.319" y="273.196" style="fill:#2EA2DB;" width="30.901" height="28.444"/>
	<rect x="91.475" y="273.196" style="fill:#2EA2DB;" width="30.901" height="28.444"/>
	<rect x="152.048" y="273.196" style="fill:#2EA2DB;" width="30.901" height="28.444"/>
	<rect x="212.687" y="273.196" style="fill:#2EA2DB;" width="30.901" height="28.444"/>
	<rect x="273.261" y="273.196" style="fill:#2EA2DB;" width="30.901" height="28.444"/>
	<rect x="30.319" y="329.438" style="fill:#2EA2DB;" width="30.901" height="28.444"/>
	<rect x="91.475" y="329.438" style="fill:#2EA2DB;" width="30.901" height="28.444"/>
	<rect x="273.261" y="329.438" style="fill:#2EA2DB;" width="30.901" height="28.444"/>
</g>
<g>
	<rect x="30.319" y="216.889" style="fill:#D3D7DA;" width="30.901" height="28.444"/>
	<rect x="152.048" y="329.438" style="fill:#D3D7DA;" width="91.475" height="28.444"/>
	<rect x="334.416" y="273.778" style="fill:#D3D7DA;" width="30.901" height="84.105"/>
</g>
<path style="fill:#193651;" d="M204.024,182.949v-39.564c0-6.788,5.56-12.347,12.347-12.347h107.572
	c17.907,0,32.129-14.222,32.129-32.129S341.85,66.78,323.943,66.78H91.475c-6.788,0-12.347-5.56-12.347-12.347V3.038H66.78v51.329
	c0,13.576,11.119,24.76,24.76,24.76h232.404c11.119,0,19.782,8.663,19.782,19.782s-8.663,19.782-19.782,19.782H216.372
	c-13.576,0-24.76,11.119-24.76,24.76v39.564H0v209.584h395.636V182.949H204.024z M383.289,380.121H12.347V195.297h370.941
	L383.289,380.121L383.289,380.121z"/>
<g>
</g>
<g>
</g>
<g>
</g>
<g>
</g>
<g>
</g>
<g>
</g>
<g>
</g>
<g>
</g>
<g>
</g>
<g>
</g>
<g>
</g>
<g>
</g>
<g>
</g>
<g>
</g>
<g>
</g>
</svg>
