<?xml version="1.0" encoding="iso-8859-1"?>
<!-- Generator: Adobe Illustrator 19.0.0, SVG Export Plug-In . SVG Version: 6.00 Build 0)  -->
<svg version="1.1" id="Layer_1" xmlns="http://www.w3.org/2000/svg" xmlns:xlink="http://www.w3.org/1999/xlink" x="0px" y="0px"
	 viewBox="0 0 395.701 395.701" style="enable-background:new 0 0 395.701 395.701;" xml:space="preserve">
<path style="fill:#FFFFFF;" d="M137.826,102.626H94.578H51.329c-24.76,0-44.477,19.782-44.477,44.477V266.44h27.798v123.022H154.57
	V266.44h27.798V147.168C182.368,122.408,162.586,102.626,137.826,102.626z"/>
<path style="fill:#D3D7DA;" d="M137.826,127.386H50.683c-11.119,0-19.782,8.663-19.782,19.782v94.578h27.798v123.022h71.111V241.745
	h27.798v-94.578C157.608,136.048,149.01,127.386,137.826,127.386z"/>
<path style="fill:#193651;" d="M137.826,96.485H50.683C22.885,96.485,0,119.37,0,147.168v125.479h27.798v123.022h132.267V272.646
	h27.798V147.168C188.574,119.37,165.689,96.485,137.826,96.485z M176.162,260.299h-27.798v123.022h-47.58v-91.475H88.436v91.475
	H40.21V260.299H12.412V147.168c0-21.01,17.325-38.335,38.335-38.335h87.143c21.01,0,38.335,17.325,38.335,38.335v113.131H176.162z"
	/>
<circle style="fill:#FFFFFF;" cx="93.931" cy="42.699" r="36.461"/>
<g>
	<path style="fill:#193651;" d="M93.931,85.366c-23.467,0-42.667-19.135-42.667-42.667S70.4,0.032,93.931,0.032
		s42.667,19.135,42.667,42.667C136.598,66.166,117.463,85.366,93.931,85.366z M93.931,12.38c-16.679,0-30.319,13.576-30.319,30.319
		s13.576,30.319,30.319,30.319s30.319-13.576,30.319-30.319S110.675,12.38,93.931,12.38z"/>
	<rect x="51.329" y="158.287" style="fill:#193651;" width="12.347" height="12.347"/>
	<rect x="87.79" y="158.287" style="fill:#193651;" width="12.347" height="12.347"/>
	<rect x="124.897" y="158.287" style="fill:#193651;" width="12.347" height="12.347"/>
</g>
<path style="fill:#FFFFFF;" d="M363.507,32.162L363.507,32.162c-34.586-34.586-90.246-34.586-124.897,0l0,0
	c-27.798,27.798-33.358,69.883-16.097,103.24l-6.206,43.248l43.248-6.206c33.358,17.325,75.442,12.347,103.24-16.097l0,0
	C398.093,122.408,398.093,66.812,363.507,32.162z"/>
<g>
	<polygon style="fill:#193651;" points="320.84,137.277 320.84,149.624 294.853,149.624 294.853,70.497 281.277,70.497 
		281.277,58.149 307.265,58.149 307.265,137.277 	"/>
	<rect x="294.853" y="33.39" style="fill:#193651;" width="12.347" height="12.347"/>
	<path style="fill:#193651;" d="M300.154,0.032c-52.752,0-95.483,42.731-95.483,95.483c0,16.226,4.073,31.483,11.184,44.865
		l-6.271,45.77l45.77-6.271c13.382,7.111,28.638,11.184,44.865,11.184c52.752,0,95.483-42.731,95.483-95.483
		S352.905,0.032,300.154,0.032z M300.154,178.069c-15.192,0-29.479-4.137-41.762-11.378l-34.004,4.59l4.655-33.875
		c-7.24-12.283-11.442-26.634-11.442-41.891c0-45.511,37.042-82.554,82.554-82.554s82.554,37.042,82.554,82.554
		S345.665,178.069,300.154,178.069z"/>
</g>
<g>
</g>
<g>
</g>
<g>
</g>
<g>
</g>
<g>
</g>
<g>
</g>
<g>
</g>
<g>
</g>
<g>
</g>
<g>
</g>
<g>
</g>
<g>
</g>
<g>
</g>
<g>
</g>
<g>
</g>
</svg>
