<?xml version="1.0" encoding="iso-8859-1"?>
<!-- Generator: Adobe Illustrator 19.0.0, SVG Export Plug-In . SVG Version: 6.00 Build 0)  -->
<svg version="1.1" id="Capa_1" xmlns="http://www.w3.org/2000/svg" xmlns:xlink="http://www.w3.org/1999/xlink" x="0px" y="0px"
	 viewBox="0 0 489.5 489.5" style="enable-background:new 0 0 489.5 489.5;" xml:space="preserve">
<g>
	<path d="M447.15,0H92.85c-18.8,0-34,15.2-34,34v61.3h-26.1c-13.5,0-24.4,10.9-24.4,24.4v11.8c0,13.5,10.9,24.4,24.4,24.4h26.1v58.5
		h-26.1c-13.5,0-24.4,10.9-24.4,24.4v11.8c0,13.5,10.9,24.4,24.4,24.4h26.1v58.5h-26.1c-13.5,0-24.4,10.9-24.4,24.4v11.9
		c0,13.5,10.9,24.4,24.4,24.4h26.1v61.3c0,18.8,15.2,34,34,34h354.3c18.8,0,34-15.2,34-34V34.1C481.25,15.3,465.95,0,447.15,0z
		 M401.65,367.8c0,8.2-6.6,14.8-14.8,14.8h-98.9h-34.4h-98.9c-8.2,0-14.8-6.6-14.8-14.8v-6.9c0-18,8.4-35.1,22.9-45.8
		c29.1-21.6,56.9-35.6,63.2-38.7c0.8-0.4,1.3-1.2,1.3-2.1v-25.4c-3.9-6.8-6.4-13.9-7.4-20.4c-2.8-0.2-6.6-4.2-10.6-18.5
		c-5.5-19.5,0.3-22.4,5.3-21.9c-1-2.7-1.7-5.4-2.1-8l0,0c-1.8-9.1-2.2-17.6-0.1-25.7c2.5-10.9,8.4-19.6,15-26.3
		c4.2-4.4,8.9-8.3,13.9-11.5c4.1-2.8,8.6-5.2,13.5-6.9l0,0c3.8-1.3,7.9-2.1,12.3-2.3c13.4-1.2,23.5,2.2,30.8,6.5
		c10.9,6,15,13.9,15,13.9s24.9,1.8,16.5,52.3c-0.5,2.7-1.2,5.3-2.1,8c5-0.5,10.8,2.4,5.3,21.9c-4,14.3-7.8,18.3-10.6,18.5
		c-1,6.4-3.5,13.4-7.4,20.1v25.7c0,0.9,0.5,1.7,1.3,2.1c6.3,3.1,34.2,17.2,63.2,38.7c14.5,10.7,22.9,27.8,22.9,45.8v6.9H401.65z"/>
</g>
<g>
</g>
<g>
</g>
<g>
</g>
<g>
</g>
<g>
</g>
<g>
</g>
<g>
</g>
<g>
</g>
<g>
</g>
<g>
</g>
<g>
</g>
<g>
</g>
<g>
</g>
<g>
</g>
<g>
</g>
</svg>
