<?xml version="1.0" encoding="iso-8859-1"?>
<!-- Generator: Adobe Illustrator 19.0.0, SVG Export Plug-In . SVG Version: 6.00 Build 0)  -->
<svg version="1.1" id="Layer_1" xmlns="http://www.w3.org/2000/svg" xmlns:xlink="http://www.w3.org/1999/xlink" x="0px" y="0px"
	 viewBox="0 0 398.272 398.272" style="enable-background:new 0 0 398.272 398.272;" xml:space="preserve">
<path style="fill:#FDBF5E;" d="M343.904,126.893l-73.568,47.644c12.994,20.428,40.21,21.01,60.574,8.016
	C351.274,169.56,356.833,146.675,343.904,126.893z"/>
<g>
	<path style="fill:#FFFFFF;" d="M109.431,313.786c-2.004-0.129-4.008-0.194-6.077-0.194c-8.081,0-15.968,0.97-23.531,2.844
		l-35.232-133.56c4.008,1.81,8.404,2.78,13.059,2.78c6.141,0,11.83-1.681,16.679-4.655L109.431,313.786z"/>
	<path style="fill:#FFFFFF;" d="M225.213,68.194l-136.339,77.64c-2.327-9.503-8.921-17.39-17.584-21.463l140.929-80.291
		L225.213,68.194z"/>
	<circle style="fill:#FFFFFF;" cx="57.649" cy="153.463" r="32.129"/>
</g>
<path style="fill:#2EA2DB;" d="M198.579,387.807c-10.537-42.667-49.455-74.214-95.224-74.214S18.732,345.14,7.613,387.807H198.579z"
	/>
<path style="fill:#193651;" d="M57.649,159.669L57.649,159.669c-3.685,0-6.206-2.457-6.206-6.206l0,0
	c0-3.685,2.457-6.206,6.206-6.206l0,0c3.685,0,6.206,2.457,6.206,6.206l0,0C63.855,157.213,60.752,159.669,57.649,159.669z"/>
<path style="fill:#FFFFFF;" d="M140.526,317.277L140.526,317.277c8.663-11.766,25.341-14.222,37.107-5.56l0,0
	c11.766,8.663,14.222,25.341,4.913,37.107l0,0"/>
<g>
	<path style="fill:#193651;" d="M181.318,307.386c-6.788-4.913-15.451-7.434-24.113-6.206c-8.016,1.228-15.451,5.56-20.428,11.766
		c-6.788-2.457-14.222-3.685-22.238-4.913L81.763,183.136c16.097-12.347,14.222-32.776,13.576-34.004l124.897-71.111
		c-3.103-1.875-9.244-8.016-9.891-8.663L91.653,136.784c-2.457-4.331-5.56-8.663-9.244-11.766l120.566-68.59
		c-0.646-1.228-2.457-9.891-2.457-12.994L69.997,117.649c-4.331-1.228-8.663-2.457-12.994-2.457
		c-21.01,0-37.689,17.325-37.689,38.335c0,14.222,8.016,27.216,19.782,33.358l32.776,124.832
		c-51.329,11.766-74.149,77.899-71.693,82.23H206.66c-0.646-0.646-7.434-30.319-17.907-42.667
		C197.997,337.059,194.894,317.277,181.318,307.386z M31.726,153.463c0-14.222,11.766-25.988,25.341-25.988
		c14.222,0,25.988,11.766,25.988,25.988c0,14.222-11.766,25.988-25.988,25.988C43.427,179.451,31.726,167.685,31.726,153.463z
		 M53.318,191.217c1.228,0,12.994-0.646,17.325-1.875l30.901,118.044c-5.56,0-11.766,0.646-17.325,1.875L53.318,191.217z
		 M190.563,381.6H16.276c12.994-37.107,47.58-61.802,87.143-61.802S177.569,344.493,190.563,381.6z M173.884,317.277
		c6.788,6.206,9.891,15.451,6.206,24.113c-8.663-9.891-19.782-17.325-31.547-22.885
		C151.645,314.239,163.993,309.908,173.884,317.277z"/>
	<rect x="64.437" y="350.699" style="fill:#193651;" width="12.347" height="12.347"/>
	<rect x="97.213" y="350.699" style="fill:#193651;" width="12.347" height="12.347"/>
	<rect x="129.342" y="350.699" style="fill:#193651;" width="12.347" height="12.347"/>
</g>
<path style="fill:#F16051;" d="M288.954,48.413c-13.253,2.198-26.376,7.046-38.4,14.804c-11.442,7.37-20.881,16.679-28.121,27.152
	l-16.356-25.341c-11.766-17.907-6.788-42.667,11.766-54.368c6.529-4.267,13.964-6.335,21.333-6.335
	c12.865,0,25.6,6.271,33.099,18.101L288.954,48.413z"/>
<path style="fill:#FFFFFF;" d="M250.554,63.217c-46.998,30.319-59.992,92.703-29.673,139.701L390.255,92.889
	C359.936,46.538,297.488,32.962,250.554,63.217z"/>
<path style="fill:#193651;" d="M395.169,89.786c-19.782-30.319-53.786-48.808-90.246-48.808c-20.428,0-40.792,6.206-58.117,17.325
	c-49.455,32.129-63.677,98.909-31.547,148.364l3.103,4.913L398.272,94.764L395.169,89.786z M222.692,194.32
	c-11.119-20.428-14.869-43.248-9.891-66.133c5.56-24.76,19.782-45.77,41.438-59.992c15.45-9.891,33.358-15.451,51.329-15.451
	c30.319,0,58.117,14.222,76.024,38.335L222.692,194.32z"/>
<g>
</g>
<g>
</g>
<g>
</g>
<g>
</g>
<g>
</g>
<g>
</g>
<g>
</g>
<g>
</g>
<g>
</g>
<g>
</g>
<g>
</g>
<g>
</g>
<g>
</g>
<g>
</g>
<g>
</g>
</svg>
