<?xml version="1.0" encoding="iso-8859-1"?>
<!-- Generator: Adobe Illustrator 19.0.0, SVG Export Plug-In . SVG Version: 6.00 Build 0)  -->
<svg version="1.1" id="Layer_1" xmlns="http://www.w3.org/2000/svg" xmlns:xlink="http://www.w3.org/1999/xlink" x="0px" y="0px"
	 viewBox="0 0 401.196 401.196" style="enable-background:new 0 0 401.196 401.196;" xml:space="preserve">
<polygon style="fill:#FFFFFF;" points="328.838,53.786 328.838,339.976 361.032,389.43 392.515,339.976 392.515,53.786 "/>
<path style="fill:#F16051;" d="M380.168,6.206H341.25c-6.788,0-12.348,5.56-12.348,12.347v35.879h63.677v-0.646V18.554
	C392.515,11.766,386.956,6.206,380.168,6.206z"/>
<path style="fill:#193651;" d="M380.168,0H341.25c-10.537,0-18.554,8.016-18.554,18.554v323.297l37.689,59.345l37.689-59.345V18.554
	C398.721,8.016,390.705,0,380.168,0z M386.374,338.166l-25.341,39.564l-25.341-39.564V59.992h50.683V338.166z M386.374,47.58
	h-51.329V18.554c0-3.685,2.457-6.206,6.206-6.206h38.917c3.685,0,6.206,2.457,6.206,6.206L386.374,47.58L386.374,47.58z"/>
<rect x="9.291" y="6.206" style="fill:#FFFFFF;" width="286.19" height="383.289"/>
<path style="fill:#193651;" d="M301.687,395.636H3.085V0h298.602V395.636z M15.432,383.289h273.842V12.347H15.432V383.289z"/>
<rect x="33.986" y="30.901" style="fill:#E1E6E9;" width="236.735" height="333.834"/>
<rect x="58.745" y="55.661" style="fill:#FFFFFF;" width="63.677" height="65.552"/>
<g>
	<rect x="354.826" y="183.014" style="fill:#193651;" width="11.766" height="12.347"/>
	<rect x="354.826" y="215.725" style="fill:#193651;" width="11.766" height="12.347"/>
	<rect x="354.826" y="247.919" style="fill:#193651;" width="11.766" height="12.347"/>
	<rect x="54.414" y="148.364" style="fill:#193651;" width="195.362" height="12.347"/>
	<rect x="54.414" y="183.014" style="fill:#193651;" width="195.362" height="12.347"/>
	<rect x="54.414" y="217.6" style="fill:#193651;" width="195.362" height="12.347"/>
	<rect x="54.414" y="252.251" style="fill:#193651;" width="195.362" height="12.347"/>
	<rect x="54.414" y="286.836" style="fill:#193651;" width="195.362" height="12.347"/>
</g>
<g>
</g>
<g>
</g>
<g>
</g>
<g>
</g>
<g>
</g>
<g>
</g>
<g>
</g>
<g>
</g>
<g>
</g>
<g>
</g>
<g>
</g>
<g>
</g>
<g>
</g>
<g>
</g>
<g>
</g>
</svg>
