<?xml version="1.0" encoding="iso-8859-1"?>
<!-- Generator: Adobe Illustrator 19.0.0, SVG Export Plug-In . SVG Version: 6.00 Build 0)  -->
<svg version="1.1" id="Layer_1" xmlns="http://www.w3.org/2000/svg" xmlns:xlink="http://www.w3.org/1999/xlink" x="0px" y="0px"
	 viewBox="0 0 395.636 395.636" style="enable-background:new 0 0 395.636 395.636;" xml:space="preserve">
<g>
	<path style="fill:#FFFFFF;" d="M389.43,103.887v283.152H6.206V103.887h114.941c15.709,52.364,76.735,141.576,76.735,141.576
		s61.026-89.147,76.735-141.576C274.618,103.887,389.43,103.887,389.43,103.887z"/>
	<path style="fill:#FFFFFF;" d="M241.067,245.398c0,23.919-19.394,43.248-43.248,43.248s-43.248-19.394-43.248-43.248
		c0-15.257,7.887-28.638,19.782-36.331c13.188,21.333,23.467,36.331,23.467,36.331s10.279-14.998,23.467-36.331
		C233.244,216.76,241.067,230.141,241.067,245.398z"/>
</g>
<g>
	<path style="fill:#193651;" d="M224.517,203.83c-2.263,3.685-4.396,7.176-6.529,10.537c10.15,6.659,16.937,18.101,16.937,31.095
		c0,20.428-16.679,37.107-37.107,37.107s-37.107-16.679-37.107-37.107c0-12.994,6.723-24.436,16.937-31.095
		c-2.069-3.297-4.267-6.853-6.529-10.537c-13.64,8.792-22.756,24.178-22.756,41.568c0,27.216,22.238,49.455,49.455,49.455
		c27.216,0,49.455-22.238,49.455-49.455C247.273,228.008,238.158,212.687,224.517,203.83z"/>
	<rect x="158.901" y="351.741" style="fill:#193651;" width="12.347" height="12.347"/>
	<rect x="191.612" y="351.741" style="fill:#193651;" width="12.347" height="12.347"/>
	<rect x="224.388" y="351.741" style="fill:#193651;" width="12.347" height="12.347"/>
</g>
<g>
	<path style="fill:#FFFFFF;" d="M389.43,269.511c-7.434-2.457-15.451-3.685-24.113-3.685c-47.58,0-85.915,38.335-85.915,85.915
		c0,12.347,2.457,24.76,7.434,35.232H389.43V269.511z"/>
	<path style="fill:#FFFFFF;" d="M6.206,201.503c6.206,1.875,12.994,2.457,19.782,2.457c39.564,0,71.111-32.129,71.111-71.111
		c0-10.537-2.457-20.428-6.206-29.026H6.206V201.503z"/>
</g>
<path style="fill:#193651;" d="M276.234,97.681c-0.905,3.879-2.198,8.016-3.685,12.347h98.392L259.038,192.84l7.434,9.891
	l116.816-86.562V261.43c-5.56-1.228-11.766-1.875-17.907-1.875c-50.683,0-92.121,41.438-92.121,92.121
	c0,9.891,1.875,19.782,4.978,29.026H24.76l111.903-82.812L129.228,288L12.347,374.626V208.937c4.331,1.228,9.244,1.228,13.576,1.228
	c42.667,0,77.253-34.586,77.253-77.253c0-8.016-1.228-15.451-3.685-22.885h23.596c-1.487-4.331-2.78-8.469-3.685-12.347H0V393.18
	h395.636V97.681H276.234z M12.347,110.028h74.214c3.103,7.434,4.331,14.804,4.331,22.885c0,35.879-29.091,64.905-64.905,64.905
	c-4.331,0-9.244,0-13.576-1.228v-86.562H12.347z M383.289,380.768h-92.121c-3.685-9.244-5.56-19.135-5.56-29.026
	c0-43.895,35.879-79.774,79.774-79.774c5.56,0,11.766,0.646,17.907,1.875V380.768z"/>
<path style="fill:#2EA2DB;" d="M117.463,83.459c0-44.477,35.879-81.002,80.356-81.002s80.356,36.461,80.356,81.002
	s-80.356,161.939-80.356,161.939S117.463,127.935,117.463,83.459z"/>
<circle style="fill:#FFFFFF;" cx="197.818" cy="77.899" r="36.461"/>
<g>
</g>
<g>
</g>
<g>
</g>
<g>
</g>
<g>
</g>
<g>
</g>
<g>
</g>
<g>
</g>
<g>
</g>
<g>
</g>
<g>
</g>
<g>
</g>
<g>
</g>
<g>
</g>
<g>
</g>
</svg>
