<?xml version="1.0" encoding="iso-8859-1"?>
<!-- Generator: Adobe Illustrator 19.0.0, SVG Export Plug-In . SVG Version: 6.00 Build 0)  -->
<svg version="1.1" id="Layer_1" xmlns="http://www.w3.org/2000/svg" xmlns:xlink="http://www.w3.org/1999/xlink" x="0px" y="0px"
	 viewBox="0 0 396.555 396.555" style="enable-background:new 0 0 396.555 396.555;" xml:space="preserve">
<path style="fill:#FFFFFF;" d="M265.058,145.856c18.554-28.638,24.113-56.307,11.766-69.56
	c-12.412-14.222-41.115-9.051-71.24,10.214c-29.867-19.329-58.182-24.372-70.917-10.214c-12.283,13.188-6.788,40.339,11.572,68.913
	c-18.877,28.962-24.566,57.018-12.154,70.788c12.865,14.287,41.568,8.986,71.693-10.731c30.125,19.717,58.828,25.018,71.693,10.731
	C289.817,202.293,283.805,174.559,265.058,145.856z"/>
<g>
	<rect x="159.361" y="262.996" style="fill:#193651;" width="12.347" height="12.994"/>
	<rect x="192.718" y="262.996" style="fill:#193651;" width="12.347" height="12.994"/>
	<rect x="225.494" y="262.996" style="fill:#193651;" width="12.347" height="12.994"/>
	<rect x="256.395" y="262.996" style="fill:#193651;" width="12.347" height="12.994"/>
	<rect x="287.942" y="262.996" style="fill:#193651;" width="12.347" height="12.994"/>
	<path style="fill:#193651;" d="M271.845,144.951c18.554-29.673,22.885-58.699,9.244-73.568c-6.206-6.788-14.869-9.891-25.341-9.891
		c-14.804,0-32.517,6.206-50.424,17.196c-17.907-11.055-35.749-17.196-50.36-17.196c-10.537,0-19.782,3.685-25.341,9.891
		c-13.576,15.257-9.051,43.507,8.921,73.309c-19.265,30.642-24.113,59.798-10.149,75.055c6.206,6.788,14.804,9.891,25.341,9.891
		c14.869,0,32.776-6.206,51.329-17.907c18.554,11.119,36.461,17.907,51.329,17.907c10.537,0,19.782-3.685,25.341-9.891
		C295.959,204.879,290.981,175.852,271.845,144.951z M138.286,80.046c3.685-3.685,9.244-6.206,16.097-6.206
		c11.184,0,24.695,4.59,39.305,12.606c-8.081,5.883-16.097,12.606-23.855,20.17c-9.115,8.857-17.131,18.101-23.919,27.281
		C132.468,109.848,130.334,89.614,138.286,80.046z M154.383,217.226c-7.434,0-12.994-1.875-16.097-6.206
		c-9.632-10.602-4.913-36.59,14.675-65.487c0.065,0,0.129-0.065,0.194-0.065c0-0.065-0.065-0.065-0.065-0.129
		c6.723-9.891,15.192-20.105,25.406-30.19c25.988-25.341,56.242-42.02,77.253-42.02c7.434,0,12.994,1.875,16.097,6.206
		c12.994,14.222,0,56.242-40.21,95.806C205.712,201.194,175.393,217.226,154.383,217.226z M272.492,211.667
		c-3.685,3.685-9.244,6.206-16.097,6.206c-11.119,0-25.341-4.978-39.564-12.994c8.016-5.56,16.097-12.347,23.467-19.782
		c9.244-9.244,17.325-18.554,24.113-27.798C278.633,180.766,281.09,202.422,272.492,211.667z"/>
</g>
<ellipse style="fill:#F16051;" cx="205.712" cy="145.533" rx="9.244" ry="9.891"/>
<path style="fill:#FFFFFF;" d="M94.391,330.357v36.461c0,9.891-8.016,17.907-17.907,17.907h-42.02v-71.628h42.02
	C86.375,312.45,94.391,320.467,94.391,330.357z"/>
<path style="fill:#193651;" d="M354.658,151.739c-0.646-42.667-17.907-83.459-48.808-111.903
	c-29.673-27.798-68.008-42.02-108.8-39.564C121.607,5.25,60.451,70.155,57.93,148.636c-1.228,48.226,18.554,92.703,54.368,123.022
	v9.244c0,17.325,13.576,31.547,30.319,31.547h68.008c8.016,0,14.222,6.788,14.222,14.869s-6.206,14.869-14.222,14.869h-110.61
	V329.84c0-12.994-10.537-24.113-24.113-24.113H40.023v-4.331H27.611v12.994H1.106v12.347h26.505v42.02H1.688v12.347h25.923v15.451
	h12.347v-6.788h36.461c12.994,0,24.113-10.537,24.113-24.113v-12.412h110.675c14.869,0,26.57-12.347,26.57-27.216
	s-11.766-27.216-26.57-27.216h-67.943c-9.891,0-17.907-8.663-17.907-19.135v-13.576l-2.457-1.875
	c-34.586-27.798-53.139-69.883-51.911-115.006c1.875-71.693,58.117-131.685,127.354-136.016
	c37.107-2.457,72.921,10.537,100.137,36.461c28.444,26.57,44.477,64.905,44.477,104.469v0.646l32.776,66.78h-38.917v53.139
	c0,12.347-9.891,22.885-21.657,22.885h-36.461v41.438h12.347v-29.673h24.113c18.554,0,34.004-15.451,34.004-35.232v-40.792h46.287
	L354.658,151.739z M88.249,366.883c0,6.206-4.913,11.766-11.766,11.766H40.67v-59.345h35.879c6.206,0,11.766,4.913,11.766,11.766
	v35.814H88.249z"/>
<g>
</g>
<g>
</g>
<g>
</g>
<g>
</g>
<g>
</g>
<g>
</g>
<g>
</g>
<g>
</g>
<g>
</g>
<g>
</g>
<g>
</g>
<g>
</g>
<g>
</g>
<g>
</g>
<g>
</g>
</svg>
