<?xml version="1.0" encoding="iso-8859-1"?>
<!-- Generator: Adobe Illustrator 19.0.0, SVG Export Plug-In . SVG Version: 6.00 Build 0)  -->
<svg version="1.1" id="Layer_1" xmlns="http://www.w3.org/2000/svg" xmlns:xlink="http://www.w3.org/1999/xlink" x="0px" y="0px"
	 viewBox="0 0 396.8 396.8" style="enable-background:new 0 0 396.8 396.8;" xml:space="preserve">
<path style="fill:#FDBF5E;" d="M360.016,104.994v244.17H25.6v-244.17h76.994c0.129,8.533,1.293,16.808,3.426,24.76H50.36v194.715
	h284.962V129.753H289.81c2.133-7.952,3.362-16.226,3.426-24.76C293.236,104.994,360.016,104.994,360.016,104.994z"/>
<path style="fill:#FFFFFF;" d="M6.465,342.375c0,26.57,20.428,47.58,46.352,47.58h291.168c25.341,0,46.352-21.01,46.352-47.58H6.465
	z"/>
<g>
	<path style="fill:#193651;" d="M366.222,335.911V98.788h-66.844C297.051,42.674,249.794-2.513,193.164,0.525
		c-50.683,2.457-91.475,43.248-95.806,93.931c-0.129,1.422-0.194,2.909-0.259,4.331H19.394v237.123H0v6.465
		c0,14.545,5.43,28.121,15.257,38.271c9.891,10.15,23.273,15.774,37.56,15.774h291.168c29.156,0,52.816-24.242,52.816-54.044v-6.465
		L366.222,335.911L366.222,335.911z M110.287,95.103c3.685-44.477,39.564-79.774,84.105-82.23
		c50.683-3.103,93.349,38.917,93.349,90.246c0,18.554-5.56,36.461-16.097,51.911c-4.913,7.434-9.891,12.347-13.576,16.679
		c-8.663,9.244-16.097,17.325-18.554,37.689v1.875h-35.103v-98.974l12.218-12.218l17.907,18.554l23.467-22.885l-9.244-8.663
		l-14.222,14.222L216.63,82.755l-18.554,18.554l-18.554-18.554l-17.907,18.554l-14.222-14.222l-8.663,8.663l22.885,22.885
		l17.907-18.554l12.541,12.541v98.78h-34.78l-0.646-5.56c-2.457-19.135-9.244-25.988-17.325-34.586
		c-3.685-3.685-8.016-8.663-12.994-15.451C114.036,138.351,108.412,116.759,110.287,95.103z M219.733,278.699
		c-3.685,8.663-12.347,14.222-21.657,14.222s-17.907-5.56-21.657-14.222H219.733z M157.867,266.351v-14.869h80.356v14.869H157.867z
		 M157.867,239.135v-15.451h80.356v15.451H157.867z M31.806,111.2h65.552c1.422,18.554,7.628,36.719,18.554,51.911
		c4.913,8.016,9.891,12.994,14.222,17.325c7.434,7.434,12.347,12.347,14.222,27.798l1.228,10.279v60.186h17.907
		c4.461,15.192,18.101,26.57,34.65,26.57c16.097,0,30.19-10.925,34.65-26.57h17.842v-59.345l1.228-8.663
		c2.457-16.679,7.434-22.238,15.451-30.901c3.685-4.913,8.663-9.891,14.222-17.907c10.214-15.063,16.226-32.517,17.648-50.683
		h54.691v224.711H31.806V111.2z M343.984,383.491H52.816c-20.234,0-36.525-14.804-39.434-34.65h369.972
		C380.38,368.493,363.83,383.491,343.984,383.491z"/>
	<rect x="172.735" y="359.701" style="fill:#193651;" width="50.683" height="12.929"/>
	<rect x="249.988" y="359.701" style="fill:#193651;" width="12.347" height="12.929"/>
	<rect x="133.754" y="359.701" style="fill:#193651;" width="12.347" height="12.929"/>
</g>
<g>
</g>
<g>
</g>
<g>
</g>
<g>
</g>
<g>
</g>
<g>
</g>
<g>
</g>
<g>
</g>
<g>
</g>
<g>
</g>
<g>
</g>
<g>
</g>
<g>
</g>
<g>
</g>
<g>
</g>
</svg>
