<?xml version="1.0" encoding="iso-8859-1"?>
<!-- Generator: Adobe Illustrator 19.0.0, SVG Export Plug-In . SVG Version: 6.00 Build 0)  -->
<svg version="1.1" id="Layer_1" xmlns="http://www.w3.org/2000/svg" xmlns:xlink="http://www.w3.org/1999/xlink" x="0px" y="0px"
	 viewBox="0 0 395.636 395.636" style="enable-background:new 0 0 395.636 395.636;" xml:space="preserve">
<circle style="fill:#E1E6E9;" cx="197.818" cy="197.818" r="197.818"/>
<polygon style="fill:#193651;" points="395.636,349.285 68.59,349.285 68.59,336.937 383.289,336.937 383.289,115.006 
	395.636,115.006 "/>
<polygon style="fill:#193651;" points="364.735,317.737 37.107,317.737 37.107,305.39 352.388,305.39 352.388,84.105 
	364.735,84.105 "/>
<rect x="6.206" y="52.558" style="fill:#FFFFFF;" width="320.84" height="228.137"/>
<path style="fill:#193651;" d="M333.188,286.836H0V46.352h333.188V286.836z M12.347,274.489H320.84V58.699H12.347V274.489z"/>
<circle style="fill:#FFFFFF;" cx="95.224" cy="114.36" r="29.026"/>
<path style="fill:#193651;" d="M95.224,149.592c-19.135,0-35.232-15.451-35.232-35.232c0-19.135,15.451-35.232,35.232-35.232
	c19.135,0,35.232,15.451,35.232,35.232C130.457,133.56,114.36,149.592,95.224,149.592z M95.224,92.121
	c-12.347,0-22.885,9.891-22.885,22.885s9.891,22.885,22.885,22.885s22.885-9.891,22.885-22.885
	C118.044,102.012,107.572,92.121,95.224,92.121z"/>
<path style="fill:#FDBF5E;" d="M149.592,217.6L149.592,217.6c0-26.57-21.657-48.808-48.808-48.808H89.665
	c-26.57,0-48.808,21.657-48.808,48.808l0,0H149.592z"/>
<path style="fill:#193651;" d="M155.798,223.806H35.232V217.6c0-30.319,24.76-55.014,55.014-55.014h11.119
	c30.319,0,55.014,24.76,55.014,55.014v6.206H155.798z M47.58,211.394h95.224c-3.103-20.428-20.428-36.461-42.02-36.461H89.665
	C68.59,175.58,50.683,191.03,47.58,211.394z"/>
<rect x="187.281" y="85.915" style="fill:#F16051;" width="107.572" height="46.998"/>
<g>
	<rect x="188.574" y="165.689" style="fill:#193651;" width="105.697" height="12.347"/>
	<rect x="188.574" y="203.378" style="fill:#193651;" width="105.697" height="12.347"/>
	<rect x="38.917" y="241.713" style="fill:#193651;" width="254.061" height="12.347"/>
</g>
<g>
	<rect x="204.024" y="103.24" style="fill:#FFFFFF;" width="12.347" height="12.347"/>
	<rect x="234.925" y="103.24" style="fill:#FFFFFF;" width="12.347" height="12.347"/>
	<rect x="265.18" y="103.24" style="fill:#FFFFFF;" width="12.347" height="12.347"/>
</g>
<g>
</g>
<g>
</g>
<g>
</g>
<g>
</g>
<g>
</g>
<g>
</g>
<g>
</g>
<g>
</g>
<g>
</g>
<g>
</g>
<g>
</g>
<g>
</g>
<g>
</g>
<g>
</g>
<g>
</g>
</svg>
