<?xml version="1.0" encoding="iso-8859-1"?>
<!-- Generator: Adobe Illustrator 19.0.0, SVG Export Plug-In . SVG Version: 6.00 Build 0)  -->
<svg version="1.1" id="Layer_1" xmlns="http://www.w3.org/2000/svg" xmlns:xlink="http://www.w3.org/1999/xlink" x="0px" y="0px"
	 viewBox="0 0 396.865 396.865" style="enable-background:new 0 0 396.865 396.865;" xml:space="preserve">
<circle style="fill:#FFFFFF;" cx="322.069" cy="75.733" r="68.59"/>
<g>
	<path style="fill:#193651;" d="M322.069,150.529c-41.438,0-74.796-33.358-74.796-74.796S280.63,0.937,322.069,0.937
		s74.796,33.358,74.796,74.796C396.865,116.525,363.442,150.529,322.069,150.529z M322.069,13.285
		c-34.586,0-62.448,27.798-62.448,62.448s27.798,62.448,62.448,62.448c34.651,0,62.448-27.798,62.448-62.448
		S356.655,13.285,322.069,13.285z"/>
	<path style="fill:#193651;" d="M322.069,71.402c-8.016,0-14.222-6.206-14.222-14.222c0-7.434,6.788-13.576,14.222-13.576
		c8.016,0,14.222,6.206,14.222,14.222h9.244c0-11.119-8.016-21.01-18.554-22.885v-9.891h-9.244v9.244
		C307.2,36.17,299.184,46.061,299.184,57.18c0,12.994,10.537,23.467,23.467,23.467c8.016,0,14.222,6.206,14.222,14.222
		s-6.206,14.222-14.222,14.222c-8.016,0-14.222-6.206-14.222-14.222h-9.244c0,11.119,8.016,21.01,18.554,22.885v8.016h9.244v-8.016
		c10.537-1.875,18.554-11.766,18.554-22.885C345.535,81.875,334.998,71.402,322.069,71.402z"/>
</g>
<path style="fill:#FFFFFF;" d="M140.929,69.527l14.804-12.347l-8.663-17.325l-18.554,4.331c-3.685-4.913-8.663-8.663-13.576-12.347
	l1.875-19.135L98.263,6.497l-9.891,16.679c-6.206-0.646-12.347,0-18.554,1.228L57.471,9.535l-16.679,8.663l4.331,18.554
	c-4.978,3.685-8.663,8.663-12.347,13.576L13.64,48.453L7.434,67.006l16.679,9.891c-0.646,6.206,0,12.347,1.228,18.554
	l-14.869,12.347l8.663,17.325l18.554-4.331c3.685,4.913,8.663,8.663,13.576,12.347l-1.875,19.135l18.554,6.206l9.891-16.679
	c6.206,0.646,12.347,0,18.554-1.228l12.347,14.869l17.325-8.663l-4.331-18.554c4.913-3.685,8.663-8.663,12.347-13.576l19.135,1.875
	l6.206-18.554l-16.679-9.891C142.739,81.875,142.158,75.733,140.929,69.527z"/>
<path style="fill:#193651;" d="M148.299,84.978c0-4.331,0-8.663-0.646-12.347l16.097-12.994l-12.994-26.57l-19.782,4.913
	c-3.103-3.103-6.206-5.56-9.244-8.016l2.457-20.428L96.388,0.291L85.915,17.616c-4.331,0-8.663,0-12.347,0.646L59.992,2.166
	L33.358,14.513l4.978,19.782c-3.103,3.103-6.206,6.788-8.663,9.891L9.244,41.729L0,69.527l17.325,11.119
	c0,4.331,0,8.663,0.646,12.347L1.81,105.988l12.994,26.57l19.782-4.913c3.103,3.103,6.206,5.56,9.244,8.016l-2.457,20.428
	l27.798,9.244l10.537-17.325c4.331,0,8.663,0,12.347-0.646l12.994,16.097l26.57-12.994l-4.913-19.782
	c3.103-3.103,5.56-6.206,8.016-9.244l20.428,2.457l9.244-27.798L148.299,84.978z M147.717,109.737l-17.907-1.875
	c-2.457,7.434-7.434,13.576-16.097,17.907l4.331,17.907l-8.663,4.331l-11.119-14.222c-6.788,2.457-14.869,2.457-24.113,1.228
	l-9.244,15.451l-8.663-3.103l1.875-17.907c-6.206-3.685-12.347-9.244-17.907-16.097l-18.554,4.331l-4.331-8.663l14.222-11.119
	c-1.228-8.663-1.875-16.679-1.228-24.113l-15.515-9.244l3.103-8.663l17.907,1.875c4.331-8.016,9.891-14.222,16.097-18.554
	L47.58,21.301l8.663-3.685l11.119,14.222c8.016-2.457,16.097-3.103,24.113-1.228l9.244-15.451l8.663,3.103l-1.875,17.907
	c8.663,3.685,14.804,8.663,17.907,16.097l17.907-4.331l4.913,8.016l-14.222,11.119c4.331,7.434,4.913,15.451,1.228,24.113
	l15.451,9.244L147.717,109.737z"/>
<circle style="fill:#FFFFFF;" cx="82.812" cy="82.521" r="25.341"/>
<path style="fill:#193651;" d="M82.812,114.651c-12.347,0-22.885-6.788-28.444-17.907c-3.685-8.016-4.331-16.097-1.228-24.113
	c2.457-8.016,8.663-14.222,16.097-17.907c4.331-1.875,9.244-3.103,14.222-3.103c12.347,0,22.885,6.788,28.444,17.907
	c7.434,15.451,1.228,34.65-14.804,42.667C92.703,113.422,87.725,114.651,82.812,114.651z M82.812,63.321
	c-3.103,0-5.56,0.646-8.663,1.875c-4.978,2.457-8.016,6.206-9.891,11.119c-1.875,4.913-1.228,9.891,0.646,14.804
	c3.103,6.788,9.891,11.119,17.325,11.119c3.103,0,5.56-0.646,8.663-1.875c9.891-4.913,13.576-16.097,8.663-25.988
	C97.034,67.653,90.246,63.321,82.812,63.321z"/>
<path style="fill:#FFFFFF;" d="M246.626,269.802l-47.58,84.687l-47.58-84.687l0,0c4.202-3.168,8.016-7.24,11.313-11.83
	c10.02,11.572,22.562,19.265,36.267,19.265c13.511,0,26.117-7.693,36.202-19.329C238.61,262.562,242.36,266.634,246.626,269.802z"/>
<path style="fill:#FDBF5E;" d="M292.396,290.812c0,0-25.988-4.331-45.77-21.01l-47.58,84.687l-47.58-84.687
	c-19.782,16.679-45.77,21.01-45.77,21.01c-57.471,12.994-46.352,99.556-46.352,99.556l139.701-1.228l139.701,1.228
	C338.747,390.368,349.867,303.806,292.396,290.812z"/>
<path style="fill:#FFFFFF;" d="M258.974,195.653c0,36.461-27.216,81.584-59.992,81.584c-33.358,0-59.992-45.77-59.992-81.584
	c0-36.461,27.216-65.552,59.992-65.552C232.404,130.101,258.974,159.774,258.974,195.653z"/>
<g>
	<path style="fill:#193651;" d="M292.978,284.671c0,0-24.76-4.331-42.667-19.135l0,0c-2.457-2.457-4.913-4.331-6.788-6.788
		c13.576-17.325,22.238-40.792,22.238-62.449c-0.646-40.21-30.319-72.339-66.78-72.339s-66.133,32.129-66.133,71.693
		c0,21.657,8.663,45.123,22.238,62.448c-1.875,2.457-4.331,4.913-6.788,6.788c-18.554,15.451-42.667,19.135-43.248,19.782
		c-63.03,14.222-51.911,102.594-51.911,106.343l0.646,5.56h289.939l0.646-5.56C344.889,387.265,356.008,298.893,292.978,284.671z
		 M145.261,195.653c0-32.776,24.113-59.345,53.786-59.345s53.786,26.57,53.786,59.345c0,34.004-24.76,75.442-53.786,75.442
		C169.956,271.677,145.261,229.657,145.261,195.653z M238.61,271.03l-39.564,70.465l-39.564-70.465
		c1.228-1.228,2.457-2.457,3.685-3.685c10.537,9.891,22.885,16.097,35.879,16.097s25.341-6.206,35.879-16.097
		C236.089,268.574,237.317,269.802,238.61,271.03z M333.188,384.162H64.905c-1.228-18.554-1.875-77.253,41.438-87.143
		c1.228,0,23.467-3.685,43.248-17.907l49.455,88.372l49.455-88.372l0,0c19.782,13.576,42.02,17.325,42.667,17.907
		C334.416,306.909,333.77,365.608,333.188,384.162z"/>
	<rect x="252.768" y="344.016" style="fill:#193651;" width="12.347" height="12.347"/>
	<rect x="279.402" y="344.016" style="fill:#193651;" width="12.347" height="12.347"/>
	<rect x="106.279" y="344.016" style="fill:#193651;" width="12.347" height="12.347"/>
	<rect x="132.848" y="344.016" style="fill:#193651;" width="12.347" height="12.347"/>
</g>
<g>
</g>
<g>
</g>
<g>
</g>
<g>
</g>
<g>
</g>
<g>
</g>
<g>
</g>
<g>
</g>
<g>
</g>
<g>
</g>
<g>
</g>
<g>
</g>
<g>
</g>
<g>
</g>
<g>
</g>
</svg>
