<?xml version="1.0" encoding="iso-8859-1"?>
<!-- Generator: Adobe Illustrator 19.0.0, SVG Export Plug-In . SVG Version: 6.00 Build 0)  -->
<svg version="1.1" id="Layer_1" xmlns="http://www.w3.org/2000/svg" xmlns:xlink="http://www.w3.org/1999/xlink" x="0px" y="0px"
	 viewBox="0 0 395.636 395.636" style="enable-background:new 0 0 395.636 395.636;" xml:space="preserve">
<polygon style="fill:#F16051;" points="71.111,389.43 61.22,299.83 18.554,299.83 38.335,389.43 "/>
<rect x="6.206" y="180.493" style="fill:#D3D7DA;" width="72.921" height="119.337"/>
<path style="fill:#FFFFFF;" d="M298.602,194.715v78.481c21.657,0,38.917-17.325,38.917-38.917l0,0
	C337.519,212.04,320.194,194.715,298.602,194.715z"/>
<path style="fill:#2EA2DB;" d="M275.717,380.186L275.717,380.186c-12.347,0-22.885-10.537-22.885-22.885V123.022
	c0-12.347,10.537-22.885,22.885-22.885l0,0c12.347,0,22.885,10.537,22.885,22.885v234.279
	C298.602,369.648,288.065,380.186,275.717,380.186z"/>
<polygon style="fill:#FFFFFF;" points="252.832,352.97 79.127,289.293 79.127,190.384 252.832,127.354 "/>
<path style="fill:#193651;" d="M304.743,189.156v-66.133c0-16.097-12.994-29.026-29.026-29.026
	c-16.097,0-29.026,12.994-29.026,29.026l0,0L85.333,181.721v-7.434H0v131.685h13.576l19.782,89.665h44.541l-9.891-89.665h16.679
	v-7.434l161.358,58.699l0,0c0,16.097,12.994,29.026,29.026,29.026c16.097,0,29.026-12.994,29.026-29.026V278.82
	c22.238-3.103,38.917-22.238,38.917-45.123C343.725,210.812,327.046,191.612,304.743,189.156z M43.248,383.289l-17.261-77.317
	h29.673l8.663,77.253H43.248V383.289z M72.921,293.624H12.347V186.699h60.574C72.921,186.699,72.921,293.624,72.921,293.624z
	 M246.626,343.725L85.333,284.962v-90.246l161.358-58.699v207.709H246.626z M292.396,357.301c0,9.244-7.434,16.679-16.679,16.679
	c-9.244,0-16.679-7.434-16.679-16.679V123.022c0-9.244,7.434-16.679,16.679-16.679c9.244,0,16.679,7.434,16.679,16.679V357.301z
	 M304.743,266.408v-64.905c15.451,3.103,26.57,16.097,26.57,32.129S320.194,263.37,304.743,266.408z"/>
<path style="fill:#4FBF9F;" d="M126.707,105.697c6.206-9.891,9.891-21.657,9.891-34.004c0-36.461-29.026-65.552-65.552-65.552
	c-35.814,0.065-64.84,29.091-64.84,64.97s29.026,64.905,64.905,64.905c12.347,0,24.113-3.685,34.004-9.891l30.901,9.891
	L126.707,105.697z"/>
<g>
	<path style="fill:#193651;" d="M145.907,145.907l-39.564-12.347c-10.537,6.206-22.885,9.244-35.232,9.244
		C32.129,142.804,0,110.675,0,71.111S32.129,0,71.111,0c39.564,0,71.111,32.129,71.111,71.111c0,12.347-3.103,24.113-9.244,34.651
		L145.907,145.907z M71.111,12.347c-32.129,0-58.699,26.57-58.699,58.699s26.57,58.699,58.699,58.699
		c11.119,0,21.657-3.103,30.901-8.663l2.457-1.228l22.238,6.853l-6.788-22.238l1.228-2.457c5.56-9.244,8.663-19.782,8.663-30.901
		C130.457,38.917,103.822,12.347,71.111,12.347z"/>
	<rect x="361.632" y="149.592" style="fill:#193651;" width="34.004" height="12.347"/>
	<rect x="361.632" y="191.612" style="fill:#193651;" width="34.004" height="12.347"/>
	<rect x="361.632" y="233.697" style="fill:#193651;" width="34.004" height="12.347"/>
	<rect x="361.632" y="275.717" style="fill:#193651;" width="34.004" height="12.347"/>
	<rect x="361.632" y="317.737" style="fill:#193651;" width="34.004" height="12.347"/>
	<rect x="40.792" y="64.905" style="fill:#193651;" width="12.347" height="12.347"/>
	<rect x="64.905" y="64.905" style="fill:#193651;" width="12.347" height="12.347"/>
	<rect x="89.665" y="64.905" style="fill:#193651;" width="12.347" height="12.347"/>
</g>
<g>
</g>
<g>
</g>
<g>
</g>
<g>
</g>
<g>
</g>
<g>
</g>
<g>
</g>
<g>
</g>
<g>
</g>
<g>
</g>
<g>
</g>
<g>
</g>
<g>
</g>
<g>
</g>
<g>
</g>
</svg>
