<?xml version="1.0" encoding="iso-8859-1"?>
<!-- Generator: Adobe Illustrator 19.0.0, SVG Export Plug-In . SVG Version: 6.00 Build 0)  -->
<svg version="1.1" id="Layer_1" xmlns="http://www.w3.org/2000/svg" xmlns:xlink="http://www.w3.org/1999/xlink" x="0px" y="0px"
	 viewBox="0 0 397.783 397.783" style="enable-background:new 0 0 397.783 397.783;" xml:space="preserve">
<path style="fill:#FFFFFF;" d="M367.464,213.728c0-71.111-59.992-128.582-132.267-124.251
	c-63.03,4.331-114.36,57.471-116.234,121.147c-1.228,41.438,17.907,77.899,47.58,101.366v81.584h144.679v-38.853h26.57
	c13.576,0,24.113-11.119,24.113-24.113v-14.222v-39.564h27.216L367.464,213.728z"/>
<path style="fill:#2EA2DB;" d="M306.891,215.021l17.325-4.331l-2.457-22.238l-17.907-0.646c-2.457-8.016-6.788-14.869-11.766-21.01
	l9.244-15.451l-17.907-14.222l-12.994,12.347c-7.434-3.685-14.869-6.206-23.467-6.788l-4.331-17.325l-22.238,2.457l-0.646,17.907
	c-8.016,2.457-14.869,6.788-21.01,11.766l-15.451-9.244l-14.222,17.907l12.347,12.994c-3.685,7.434-6.206,14.804-6.788,23.467
	l-17.325,4.331l2.457,22.238l17.907,0.646c2.457,8.016,6.788,14.869,11.766,21.01l-8.663,15.451l17.907,14.222l12.994-12.347
	c7.434,3.685,14.869,6.206,23.467,6.788l4.331,17.325l22.238-2.457l0.646-17.907c8.016-2.457,14.869-6.788,21.01-11.766
	l15.515,9.244l14.222-17.907l-12.347-12.994C303.787,231.053,305.662,223.037,306.891,215.021z"/>
<circle style="fill:#FFFFFF;" cx="62.721" cy="67.239" r="56.889"/>
<g>
	<rect x="202.422" y="363.385" style="fill:#193651;" width="12.347" height="12.347"/>
	<rect x="234.551" y="363.385" style="fill:#193651;" width="12.347" height="12.347"/>
	<rect x="266.68" y="363.385" style="fill:#193651;" width="12.347" height="12.347"/>
</g>
<circle style="fill:#FFFFFF;" cx="240.757" cy="208.815" r="24.113"/>
<path style="fill:#193651;" d="M374.252,213.146c0-35.232-15.451-69.883-41.438-93.996c-26.57-24.76-61.22-37.107-97.681-35.232
	c-19.782,1.228-38.335,7.434-55.014,16.679l-68.59-73.503C100.41,15.651,89.872,9.962,81.339,7.053
	c-8.598-2.844-15.192-2.844-18.618-2.844c-27.216,0-51.329,17.325-59.992,43.895c-4.59,14.869-7.564,50.295,27.152,72.145
	c2.844,1.81,89.018,52.752,89.018,52.752c-3.685,11.766-6.206,24.113-6.788,37.107c-1.228,40.792,16.097,78.481,47.58,104.469
	v78.481h12.347v-84.105l-2.457-1.875c-29.673-23.467-46.352-58.699-45.123-96.453c0.646-11.119,2.457-21.01,5.56-31.547
	l93.35,54.368c2.263,1.745,9.956,5.624,16.032,5.624c0.453,0,0.905,0,1.293-0.065c13.576,0,24.76-8.663,29.026-21.01
	c4.331-12.994-0.646-25.988-11.119-34.004l-69.818-74.085c14.222-7.434,30.319-12.347,46.998-13.576
	c32.776-1.875,64.259,9.244,88.372,31.547c24.113,22.885,37.107,53.139,37.107,85.915v1.228l19.135,55.661h-24.76v59.345
	c0,9.891-8.016,17.907-17.907,17.907h-32.776v45.123h12.347v-32.776h20.428c16.679,0,30.319-13.576,30.319-30.319v-46.998h29.737
	L374.252,213.146z M124.523,161.235L70.09,129.106c55.661-9.891,56.242-60.574,55.661-69.236l43.895,46.998
	C149.864,120.443,134.414,139.579,124.523,161.235z M246.317,191.49c9.244,3.103,14.869,12.994,11.766,22.885
	c-5.56,16.097-21.01,12.347-22.885,11.766c-9.244-3.103-14.869-12.994-11.766-22.885
	C231.448,186.577,244.442,190.908,246.317,191.49z M236.426,178.496c-11.766,1.875-21.01,9.244-24.76,21.01
	c-1.228,4.331-1.875,8.663-1.228,12.347l-75.442-44.541c9.244-21.01,24.113-38.917,42.667-51.329L236.426,178.496z"/>
<circle style="fill:#FFFFFF;" cx="62.915" cy="67.886" r="51.071"/>
<g>
</g>
<g>
</g>
<g>
</g>
<g>
</g>
<g>
</g>
<g>
</g>
<g>
</g>
<g>
</g>
<g>
</g>
<g>
</g>
<g>
</g>
<g>
</g>
<g>
</g>
<g>
</g>
<g>
</g>
</svg>
