<?xml version="1.0" encoding="iso-8859-1"?>
<!-- Generator: Adobe Illustrator 19.0.0, SVG Export Plug-In . SVG Version: 6.00 Build 0)  -->
<svg version="1.1" id="Layer_1" xmlns="http://www.w3.org/2000/svg" xmlns:xlink="http://www.w3.org/1999/xlink" x="0px" y="0px"
	 viewBox="0 0 395.636 395.636" style="enable-background:new 0 0 395.636 395.636;" xml:space="preserve">
<polygon style="fill:#193651;" points="395.636,395.636 187.927,395.636 187.927,383.289 383.289,383.289 383.289,12.347 
	171.248,12.347 171.248,0 395.636,0 "/>
<path style="fill:#FFFFFF;" d="M182.368,147.135c0-24.76-19.782-44.541-44.541-44.541H94.578H51.329
	c-24.76,0-44.477,19.782-44.477,44.541v119.337h27.798v123.022H154.57V266.408h27.798V147.135z"/>
<path style="fill:#F16051;" d="M58.699,364.735V241.713H30.901v-94.578c0-11.119,8.663-19.782,19.782-19.782h87.143
	c11.119,0,19.782,8.663,19.782,19.782v94.578H129.81v123.022H58.699z"/>
<path style="fill:#193651;" d="M137.826,96.453H50.683C22.885,96.453,0,119.337,0,147.135v125.479h27.798v123.022h132.267V272.614
	h27.798V147.135C188.574,119.337,165.689,96.453,137.826,96.453z M176.162,260.267h-27.798v123.022h-47.58v-91.475H88.436v91.475
	H40.21V260.267H12.412V147.135c0-21.01,17.325-38.335,38.335-38.335h87.143c21.01,0,38.335,17.325,38.335,38.335v113.131H176.162z"
	/>
<circle style="fill:#FFFFFF;" cx="93.931" cy="42.667" r="36.461"/>
<g>
	<path style="fill:#193651;" d="M93.931,85.333c-23.467,0-42.667-19.135-42.667-42.667S70.4,0,93.931,0s42.667,19.135,42.667,42.667
		C136.598,66.133,117.463,85.333,93.931,85.333z M93.931,12.347c-16.679,0-30.319,13.576-30.319,30.319s13.576,30.319,30.319,30.319
		s30.319-13.576,30.319-30.319C124.251,25.988,110.675,12.347,93.931,12.347z"/>
	<rect x="51.329" y="158.255" style="fill:#193651;" width="12.347" height="12.347"/>
	<rect x="87.79" y="158.255" style="fill:#193651;" width="12.347" height="12.347"/>
	<rect x="124.897" y="158.255" style="fill:#193651;" width="12.347" height="12.347"/>
	<polygon style="fill:#193651;" points="325.172,82.812 304.162,61.22 312.824,52.558 325.172,64.905 356.073,34.651 
		364.735,43.248 	"/>
	<polygon style="fill:#193651;" points="325.172,153.277 304.162,131.685 312.824,123.022 325.172,136.016 356.073,105.115 
		364.735,113.713 	"/>
	<polygon style="fill:#193651;" points="325.172,294.853 304.162,273.261 312.824,264.598 325.172,277.592 356.073,246.626 
		364.735,255.289 	"/>
	<polygon style="fill:#193651;" points="325.172,365.317 304.162,344.307 312.824,335.644 325.172,348.057 356.073,317.156 
		364.735,325.754 	"/>
	<polygon style="fill:#193651;" points="325.172,224.388 304.162,202.731 312.824,194.133 325.172,206.481 356.073,175.58 
		364.735,184.824 	"/>
	<rect x="212.687" y="56.242" style="fill:#193651;" width="56.889" height="12.347"/>
	<rect x="212.687" y="126.707" style="fill:#193651;" width="56.889" height="12.347"/>
	<rect x="212.687" y="197.172" style="fill:#193651;" width="56.889" height="12.347"/>
	<rect x="212.687" y="268.283" style="fill:#193651;" width="56.889" height="12.347"/>
	<rect x="212.687" y="338.747" style="fill:#193651;" width="56.889" height="12.347"/>
</g>
<g>
</g>
<g>
</g>
<g>
</g>
<g>
</g>
<g>
</g>
<g>
</g>
<g>
</g>
<g>
</g>
<g>
</g>
<g>
</g>
<g>
</g>
<g>
</g>
<g>
</g>
<g>
</g>
<g>
</g>
</svg>
