<?xml version="1.0" encoding="iso-8859-1"?>
<!-- Generator: Adobe Illustrator 19.0.0, SVG Export Plug-In . SVG Version: 6.00 Build 0)  -->
<svg version="1.1" id="Layer_1" xmlns="http://www.w3.org/2000/svg" xmlns:xlink="http://www.w3.org/1999/xlink" x="0px" y="0px"
	 viewBox="0 0 396.218 396.218" style="enable-background:new 0 0 396.218 396.218;" xml:space="preserve">
<g>
	<path style="fill:#FFFFFF;" d="M147.717,125.189c0-30.319-31.547-54.368-70.465-55.014c-38.917,0-71.111,24.113-71.111,54.432
		s31.547,54.368,70.465,55.014v29.673l30.901-34.651C131.038,165.334,147.717,146.781,147.717,125.189z"/>
	<path style="fill:#FFFFFF;" d="M268.929,61.512c0-30.319-31.547-55.014-70.465-55.014s-71.111,24.113-71.111,53.786
		c0,30.319,31.547,54.432,70.465,55.014v29.673l30.901-34.651C252.186,101.657,268.283,83.104,268.929,61.512z"/>
	<path style="fill:#FFFFFF;" d="M389.43,114.651c0-30.319-31.547-54.432-70.465-55.014s-71.111,24.113-71.111,53.786
		c0,30.319,31.547,54.368,70.465,55.014v29.673l30.901-34.65C372.751,154.861,389.43,136.308,389.43,114.651z"/>
</g>
<g>
	<path style="fill:#193651;" d="M372.751,71.403c-14.222-11.119-33.358-17.325-53.786-17.325h-0.646
		c-16.097,0-30.901,3.685-43.248,10.537c-3.038-65.552-76.606-64.323-76.606-64.323c-39.564,0-75.442,22.885-77.253,59.992
		c0,5.56,1.228,11.119,2.457,16.097c-19.135-12.347-46.998-12.347-46.998-12.347C34.586,64.55,0,91.185,0,124.542
		c0,16.679,8.016,32.129,22.885,43.248c12.994,9.891,29.673,16.097,47.58,17.325v40.21l40.792-45.77
		c25.988-9.891,43.248-30.901,43.248-53.786c0-5.56-1.228-11.119-3.103-16.097c11.766,6.788,25.341,11.119,39.564,12.347v40.21
		l40.792-45.77c3.685-1.228,6.788-3.103,9.891-4.331c-3.685,3.685,6.206,63.03,70.465,63.677v40.21l40.857-45.705
		c25.988-9.891,43.249-30.901,43.249-53.786C395.636,97.973,387.62,82.522,372.751,71.403z M103.822,169.084l-21.01,23.467v-19.135
		c0,0-26.57,3.103-52.558-14.804c-11.766-9.891-17.907-21.657-17.907-34.004c0-26.57,29.026-47.58,64.905-47.58
		s64.323,22.174,64.323,48.743C137.826,159.193,103.822,169.084,103.822,169.084z M224.388,104.76l-21.01,23.467v-19.135
		c-0.646,2.457-40.792-1.875-52.558-14.804c-9.891-11.119-17.907-21.01-17.907-33.358c0-26.57,29.026-47.58,64.905-47.58
		s64.323,22.238,64.323,48.808C260.848,83.75,246.044,96.744,224.388,104.76z M345.535,157.9l-21.01,23.531v-19.135
		c0,0-64.905,3.685-70.465-48.808c3.685-33.358,35.232-46.998,64.905-47.58c37.107,0.646,62.449,21.657,64.323,48.808
		C382.061,132.558,371.523,148.009,345.535,157.9z"/>
	<rect x="291.814" y="104.114" style="fill:#193651;" width="12.347" height="12.347"/>
	<rect x="332.606" y="104.114" style="fill:#193651;" width="12.347" height="12.347"/>
	<rect x="171.248" y="50.975" style="fill:#193651;" width="12.347" height="12.347"/>
	<rect x="212.04" y="50.975" style="fill:#193651;" width="12.347" height="12.347"/>
	<rect x="50.683" y="114.651" style="fill:#193651;" width="12.347" height="12.347"/>
	<rect x="91.475" y="114.651" style="fill:#193651;" width="12.347" height="12.347"/>
</g>
<path style="fill:#2EA2DB;" d="M389.43,389.722v-16.097c0-29.673-24.113-53.786-53.786-53.786l0,0
	c-29.673,0-53.786,24.113-53.786,53.786v16.097H389.43z"/>
<g>
	<circle style="fill:#FFFFFF;" cx="335.644" cy="264.89" r="28.444"/>
	<circle style="fill:#FFFFFF;" cx="197.818" cy="264.89" r="28.444"/>
</g>
<path style="fill:#2EA2DB;" d="M251.604,389.722v-16.097c0-29.673-24.113-53.786-53.786-53.786l0,0
	c-29.673,0-53.786,24.113-53.786,53.786v16.097H251.604z"/>
<circle style="fill:#FFFFFF;" cx="59.992" cy="264.89" r="28.444"/>
<path style="fill:#2EA2DB;" d="M113.713,389.722v-16.097c0-29.673-24.113-53.786-53.786-53.786l0,0
	c-29.673,0-53.786,24.113-53.786,53.786v16.097H113.713z"/>
<g>
	<path style="fill:#193651;" d="M335.644,313.698c-33.358,0-59.992,27.216-59.992,59.992v22.238h119.984V373.69
		C395.636,340.267,368.42,313.698,335.644,313.698z M383.289,383.581h-95.224v-9.891c0-26.57,21.657-47.58,47.58-47.58
		c26.57,0,47.58,21.657,47.58,47.58v9.891H383.289z"/>
	<path style="fill:#193651;" d="M335.644,300.122c19.135,0,34.586-15.451,34.586-34.586c0-19.135-15.451-34.586-34.586-34.586
		s-34.586,15.451-34.586,34.586C300.412,284.025,316.509,300.122,335.644,300.122z M335.644,242.651
		c12.347,0,22.238,9.891,22.238,22.238s-9.891,22.238-22.238,22.238c-12.347,0-22.238-9.891-22.238-22.238
		C312.824,252.478,323.297,242.651,335.644,242.651z"/>
	<path style="fill:#193651;" d="M197.818,300.122c19.135,0,34.586-15.451,34.586-34.586c0-19.135-15.451-34.586-34.651-34.586
		c-19.135,0-34.586,15.451-34.586,34.586C163.168,284.025,178.683,300.122,197.818,300.122z M197.818,242.651
		c12.347,0,22.238,9.891,22.238,22.238s-9.891,22.238-22.238,22.238c-12.347,0-22.238-9.891-22.238-22.238
		C175.58,252.478,185.471,242.651,197.818,242.651z"/>
	<path style="fill:#193651;" d="M197.818,313.698c-33.358,0-59.992,27.216-59.992,59.992v22.238h119.919V373.69
		C257.81,340.267,231.176,313.698,197.818,313.698z M245.398,383.581h-95.16v-9.891c0-26.57,21.657-47.58,47.58-47.58
		c26.57,0,47.58,21.657,47.58,47.58V383.581z"/>
	<path style="fill:#193651;" d="M59.992,300.122c19.135,0,34.586-15.451,34.586-34.586c0-19.135-15.451-34.586-34.651-34.586
		s-34.586,15.451-34.586,34.586C25.341,284.025,40.792,300.122,59.992,300.122z M59.992,242.651
		c12.347,0,22.238,9.891,22.238,22.238s-9.891,22.238-22.238,22.238s-22.238-9.891-22.238-22.238
		C37.689,252.478,47.58,242.651,59.992,242.651z"/>
	<path style="fill:#193651;" d="M59.992,313.698C27.216,313.698,0,340.267,0,373.69v22.238h119.919V373.69
		C119.919,340.267,93.349,313.698,59.992,313.698z M107.572,383.581H12.347v-9.891c0-26.57,21.657-47.58,47.58-47.58
		s47.58,21.657,47.58,47.58v9.891H107.572z"/>
</g>
<g>
</g>
<g>
</g>
<g>
</g>
<g>
</g>
<g>
</g>
<g>
</g>
<g>
</g>
<g>
</g>
<g>
</g>
<g>
</g>
<g>
</g>
<g>
</g>
<g>
</g>
<g>
</g>
<g>
</g>
</svg>
